<?xml version="1.0" encoding="UTF-8"?>
<svg xmlns="http://www.w3.org/2000/svg" xmlns:xlink="http://www.w3.org/1999/xlink" width="50pt" height="50pt" viewBox="0 0 50 50" version="1.1">
<g id="surface1">
<path style=" stroke:none;fill-rule:nonzero;fill:rgb(47.058824%,76.078431%,64.313725%);fill-opacity:1;" d="M 26.25 8.96875 L 11.019531 8.96875 C 10.609375 8.96875 10.277344 8.636719 10.277344 8.226562 C 10.277344 7.8125 10.609375 7.480469 11.019531 7.480469 L 26.25 7.480469 C 26.660156 7.480469 26.992188 7.8125 26.992188 8.226562 C 26.992188 8.636719 26.660156 8.96875 26.25 8.96875 Z M 26.25 8.96875 "/>
<path style=" stroke:none;fill-rule:nonzero;fill:rgb(47.058824%,76.078431%,64.313725%);fill-opacity:1;" d="M 11.691406 14.417969 L 3.851562 14.417969 C 3.441406 14.417969 3.109375 14.082031 3.109375 13.671875 C 3.109375 13.261719 3.441406 12.929688 3.851562 12.929688 L 11.691406 12.929688 C 12.101562 12.929688 12.433594 13.261719 12.433594 13.671875 C 12.433594 14.082031 12.101562 14.417969 11.691406 14.417969 Z M 11.691406 14.417969 "/>
<path style=" stroke:none;fill-rule:nonzero;fill:rgb(47.058824%,76.078431%,64.313725%);fill-opacity:1;" d="M 11.421875 19.480469 L 8.328125 19.480469 C 7.914062 19.480469 7.582031 19.148438 7.582031 18.738281 C 7.582031 18.328125 7.914062 17.996094 8.328125 17.996094 L 11.421875 17.996094 C 11.832031 17.996094 12.167969 18.328125 12.167969 18.738281 C 12.167969 19.148438 11.832031 19.480469 11.421875 19.480469 Z M 11.421875 19.480469 "/>
<path style=" stroke:none;fill-rule:nonzero;fill:rgb(47.058824%,76.078431%,64.313725%);fill-opacity:1;" d="M 8.328125 23.148438 L 0.742188 23.148438 C 0.332031 23.148438 0 22.816406 0 22.40625 C 0 21.996094 0.332031 21.664062 0.742188 21.664062 L 8.328125 21.664062 C 8.738281 21.664062 9.070312 21.996094 9.070312 22.40625 C 9.070312 22.816406 8.738281 23.148438 8.328125 23.148438 Z M 8.328125 23.148438 "/>
<path style=" stroke:none;fill-rule:nonzero;fill:rgb(47.058824%,76.078431%,64.313725%);fill-opacity:1;" d="M 27.238281 42.519531 L 11.019531 42.519531 C 10.609375 42.519531 10.277344 42.1875 10.277344 41.773438 C 10.277344 41.363281 10.609375 41.03125 11.019531 41.03125 L 27.238281 41.03125 C 27.648438 41.03125 27.984375 41.363281 27.984375 41.773438 C 27.984375 42.1875 27.648438 42.519531 27.238281 42.519531 Z M 27.238281 42.519531 "/>
<path style=" stroke:none;fill-rule:nonzero;fill:rgb(47.058824%,76.078431%,64.313725%);fill-opacity:1;" d="M 11.691406 37.070312 L 3.851562 37.070312 C 3.441406 37.070312 3.109375 36.738281 3.109375 36.328125 C 3.109375 35.917969 3.441406 35.582031 3.851562 35.582031 L 11.691406 35.582031 C 12.101562 35.582031 12.433594 35.917969 12.433594 36.328125 C 12.433594 36.738281 12.101562 37.070312 11.691406 37.070312 Z M 11.691406 37.070312 "/>
<path style=" stroke:none;fill-rule:nonzero;fill:rgb(47.058824%,76.078431%,64.313725%);fill-opacity:1;" d="M 11.421875 32.003906 L 8.328125 32.003906 C 7.914062 32.003906 7.582031 31.671875 7.582031 31.261719 C 7.582031 30.851562 7.914062 30.519531 8.328125 30.519531 L 11.421875 30.519531 C 11.832031 30.519531 12.167969 30.851562 12.167969 31.261719 C 12.167969 31.671875 11.832031 32.003906 11.421875 32.003906 Z M 11.421875 32.003906 "/>
<path style=" stroke:none;fill-rule:nonzero;fill:rgb(47.058824%,76.078431%,64.313725%);fill-opacity:1;" d="M 8.328125 28.335938 L 0.742188 28.335938 C 0.332031 28.335938 0 28.003906 0 27.59375 C 0 27.183594 0.332031 26.851562 0.742188 26.851562 L 8.328125 26.851562 C 8.738281 26.851562 9.070312 27.183594 9.070312 27.59375 C 9.070312 28.003906 8.738281 28.335938 8.328125 28.335938 Z M 8.328125 28.335938 "/>
<path style=" stroke:none;fill-rule:nonzero;fill:rgb(58.431373%,83.921569%,64.313725%);fill-opacity:1;" d="M 50 25 C 50 35.125 41.792969 43.332031 31.667969 43.332031 C 21.542969 43.332031 13.335938 35.125 13.335938 25 C 13.335938 14.875 21.542969 6.667969 31.667969 6.667969 C 41.792969 6.667969 50 14.875 50 25 Z M 50 25 "/>
<path style=" stroke:none;fill-rule:nonzero;fill:rgb(47.058824%,76.078431%,64.313725%);fill-opacity:1;" d="M 31.667969 6.667969 C 31.203125 6.667969 30.742188 6.683594 30.289062 6.71875 C 39.769531 7.425781 47.242188 15.339844 47.242188 25 C 47.242188 34.660156 39.769531 42.574219 30.289062 43.28125 C 30.742188 43.316406 31.203125 43.332031 31.667969 43.332031 C 41.792969 43.332031 50 35.125 50 25 C 50 14.875 41.792969 6.667969 31.667969 6.667969 Z M 31.667969 6.667969 "/>
<path style=" stroke:none;fill-rule:nonzero;fill:rgb(95.686275%,98.431373%,100%);fill-opacity:1;" d="M 45.746094 25 C 45.746094 32.773438 39.441406 39.078125 31.667969 39.078125 C 23.894531 39.078125 17.589844 32.773438 17.589844 25 C 17.589844 17.226562 23.894531 10.921875 31.667969 10.921875 C 39.441406 10.921875 45.746094 17.226562 45.746094 25 Z M 45.746094 25 "/>
<path style=" stroke:none;fill-rule:nonzero;fill:rgb(85.490196%,94.509804%,95.686275%);fill-opacity:1;" d="M 31.667969 10.921875 C 31.238281 10.921875 30.816406 10.945312 30.398438 10.980469 C 37.578125 11.625 43.203125 17.652344 43.203125 25 C 43.203125 32.347656 37.578125 38.375 30.398438 39.019531 C 30.816406 39.054688 31.238281 39.078125 31.667969 39.078125 C 39.441406 39.078125 45.746094 32.773438 45.746094 25 C 45.746094 17.226562 39.441406 10.921875 31.667969 10.921875 Z M 31.667969 10.921875 "/>
<path style=" stroke:none;fill-rule:nonzero;fill:rgb(21.176471%,36.862745%,49.019608%);fill-opacity:1;" d="M 31.667969 16.0625 C 31.257812 16.0625 30.925781 15.730469 30.925781 15.320312 L 30.925781 14.1875 C 30.925781 13.773438 31.257812 13.441406 31.667969 13.441406 C 32.078125 13.441406 32.410156 13.773438 32.410156 14.1875 L 32.410156 15.320312 C 32.410156 15.730469 32.078125 16.0625 31.667969 16.0625 Z M 31.667969 16.0625 "/>
<path style=" stroke:none;fill-rule:nonzero;fill:rgb(21.176471%,36.862745%,49.019608%);fill-opacity:1;" d="M 38.511719 18.898438 C 38.324219 18.898438 38.132812 18.824219 37.988281 18.679688 C 37.695312 18.390625 37.695312 17.921875 37.988281 17.628906 L 38.789062 16.828125 C 39.078125 16.539062 39.550781 16.539062 39.839844 16.828125 C 40.128906 17.117188 40.128906 17.589844 39.839844 17.878906 L 39.039062 18.679688 C 38.894531 18.824219 38.703125 18.898438 38.511719 18.898438 Z M 38.511719 18.898438 "/>
<path style=" stroke:none;fill-rule:nonzero;fill:rgb(21.176471%,36.862745%,49.019608%);fill-opacity:1;" d="M 42.480469 25.742188 L 41.347656 25.742188 C 40.9375 25.742188 40.605469 25.410156 40.605469 25 C 40.605469 24.589844 40.9375 24.257812 41.347656 24.257812 L 42.480469 24.257812 C 42.894531 24.257812 43.226562 24.589844 43.226562 25 C 43.226562 25.410156 42.894531 25.742188 42.480469 25.742188 Z M 42.480469 25.742188 "/>
<path style=" stroke:none;fill-rule:nonzero;fill:rgb(21.176471%,36.862745%,49.019608%);fill-opacity:1;" d="M 39.316406 33.390625 C 39.125 33.390625 38.933594 33.316406 38.789062 33.171875 L 37.988281 32.371094 C 37.695312 32.078125 37.695312 31.609375 37.988281 31.320312 C 38.277344 31.027344 38.746094 31.027344 39.039062 31.320312 L 39.839844 32.121094 C 40.128906 32.410156 40.128906 32.882812 39.839844 33.171875 C 39.695312 33.316406 39.503906 33.390625 39.316406 33.390625 Z M 39.316406 33.390625 "/>
<path style=" stroke:none;fill-rule:nonzero;fill:rgb(21.176471%,36.862745%,49.019608%);fill-opacity:1;" d="M 31.667969 36.558594 C 31.257812 36.558594 30.925781 36.226562 30.925781 35.8125 L 30.925781 34.679688 C 30.925781 34.269531 31.257812 33.9375 31.667969 33.9375 C 32.078125 33.9375 32.410156 34.269531 32.410156 34.679688 L 32.410156 35.8125 C 32.410156 36.226562 32.078125 36.558594 31.667969 36.558594 Z M 31.667969 36.558594 "/>
<path style=" stroke:none;fill-rule:nonzero;fill:rgb(21.176471%,36.862745%,49.019608%);fill-opacity:1;" d="M 24.019531 33.390625 C 23.832031 33.390625 23.640625 33.316406 23.496094 33.171875 C 23.203125 32.882812 23.203125 32.410156 23.496094 32.121094 L 24.296875 31.320312 C 24.585938 31.027344 25.058594 31.027344 25.347656 31.320312 C 25.640625 31.609375 25.640625 32.078125 25.347656 32.371094 L 24.546875 33.171875 C 24.402344 33.316406 24.210938 33.390625 24.019531 33.390625 Z M 24.019531 33.390625 "/>
<path style=" stroke:none;fill-rule:nonzero;fill:rgb(21.176471%,36.862745%,49.019608%);fill-opacity:1;" d="M 21.988281 25.742188 L 20.851562 25.742188 C 20.441406 25.742188 20.109375 25.410156 20.109375 25 C 20.109375 24.589844 20.441406 24.257812 20.851562 24.257812 L 21.988281 24.257812 C 22.398438 24.257812 22.730469 24.589844 22.730469 25 C 22.730469 25.410156 22.398438 25.742188 21.988281 25.742188 Z M 21.988281 25.742188 "/>
<path style=" stroke:none;fill-rule:nonzero;fill:rgb(21.176471%,36.862745%,49.019608%);fill-opacity:1;" d="M 24.824219 18.898438 C 24.632812 18.898438 24.441406 18.824219 24.296875 18.679688 L 23.496094 17.878906 C 23.203125 17.589844 23.203125 17.117188 23.496094 16.828125 C 23.785156 16.539062 24.257812 16.539062 24.546875 16.828125 L 25.347656 17.628906 C 25.640625 17.921875 25.640625 18.390625 25.347656 18.679688 C 25.203125 18.824219 25.011719 18.898438 24.824219 18.898438 Z M 24.824219 18.898438 "/>
<path style=" stroke:none;fill-rule:nonzero;fill:rgb(16.862745%,30.196078%,40%);fill-opacity:1;" d="M 34.921875 25.742188 L 31.667969 25.742188 C 31.257812 25.742188 30.925781 25.410156 30.925781 25 L 30.925781 18.738281 C 30.925781 18.328125 31.257812 17.996094 31.667969 17.996094 C 32.078125 17.996094 32.410156 18.328125 32.410156 18.738281 L 32.410156 24.257812 L 34.921875 24.257812 C 35.332031 24.257812 35.664062 24.589844 35.664062 25 C 35.664062 25.410156 35.332031 25.742188 34.921875 25.742188 Z M 34.921875 25.742188 "/>
</g>
</svg>
