<?xml version="1.0" encoding="UTF-8"?>
<svg xmlns="http://www.w3.org/2000/svg" xmlns:xlink="http://www.w3.org/1999/xlink" width="50pt" height="50pt" viewBox="0 0 50 50" version="1.1">
<g id="surface1">
<path style=" stroke:none;fill-rule:nonzero;fill:rgb(89.411765%,96.470588%,100%);fill-opacity:1;" d="M 50 25 C 50 28.882812 49.113281 32.5625 47.53125 35.84375 C 46.789062 37.386719 43.421875 37.136719 42.390625 38.480469 C 41.082031 40.1875 42.027344 43.429688 40.332031 44.75 C 37.632812 46.84375 34.496094 48.398438 31.082031 49.253906 C 29.253906 49.710938 27.351562 45.519531 25.390625 45.550781 C 25.261719 45.550781 25.132812 45.554688 25.007812 45.554688 C 23.296875 45.554688 21.628906 45.382812 20.015625 45.054688 C 19.253906 44.898438 18.5 49.15625 17.761719 48.9375 C 7.484375 45.832031 0 36.289062 0 25 C 0 11.191406 11.191406 0 25 0 C 38.804688 0 50 11.191406 50 25 Z M 50 25 "/>
<path style=" stroke:none;fill-rule:nonzero;fill:rgb(40%,70.196078%,58.039216%);fill-opacity:1;" d="M 46.042969 13.839844 L 46.042969 31.125 C 46.042969 32.484375 44.941406 33.582031 43.585938 33.582031 L 11.929688 33.582031 C 10.574219 33.582031 9.472656 32.484375 9.472656 31.125 L 9.472656 13.839844 C 9.472656 12.480469 10.574219 11.378906 11.929688 11.378906 L 43.585938 11.378906 C 44.941406 11.378906 46.042969 12.480469 46.042969 13.839844 Z M 46.042969 13.839844 "/>
<path style=" stroke:none;fill-rule:nonzero;fill:rgb(40%,70.196078%,58.039216%);fill-opacity:1;" d="M 43.292969 11.089844 L 43.292969 28.375 C 43.292969 29.734375 42.195312 30.835938 40.835938 30.835938 L 9.179688 30.835938 C 7.824219 30.835938 6.722656 29.734375 6.722656 28.375 L 6.722656 11.089844 C 6.722656 9.730469 7.824219 8.628906 9.179688 8.628906 L 40.835938 8.628906 C 42.195312 8.628906 43.292969 9.730469 43.292969 11.089844 Z M 43.292969 11.089844 "/>
<path style=" stroke:none;fill-rule:nonzero;fill:rgb(40%,70.196078%,58.039216%);fill-opacity:1;" d="M 40.542969 8.339844 L 40.542969 25.625 C 40.542969 26.984375 39.445312 28.085938 38.085938 28.085938 L 6.429688 28.085938 C 5.074219 28.085938 3.972656 26.984375 3.972656 25.625 L 3.972656 8.339844 C 3.972656 6.980469 5.074219 5.882812 6.429688 5.882812 L 38.085938 5.882812 C 39.445312 5.882812 40.542969 6.980469 40.542969 8.339844 Z M 40.542969 8.339844 "/>
<path style=" stroke:none;fill-rule:nonzero;fill:rgb(47.058824%,76.078431%,64.313725%);fill-opacity:1;" d="M 37.796875 5.589844 L 37.796875 22.875 C 37.796875 24.234375 36.695312 25.335938 35.335938 25.335938 L 3.679688 25.335938 C 2.324219 25.335938 1.222656 24.234375 1.222656 22.875 L 1.222656 5.589844 C 1.222656 4.230469 2.324219 3.132812 3.679688 3.132812 L 35.335938 3.132812 C 36.695312 3.132812 37.796875 4.230469 37.796875 5.589844 Z M 37.796875 5.589844 "/>
<path style=" stroke:none;fill-rule:nonzero;fill:rgb(47.058824%,76.078431%,64.313725%);fill-opacity:1;" d="M 27.28125 14.234375 C 27.28125 18.523438 23.800781 22.003906 19.507812 22.003906 C 15.21875 22.003906 11.738281 18.523438 11.738281 14.234375 C 11.738281 9.941406 15.21875 6.460938 19.507812 6.460938 C 23.800781 6.460938 27.28125 9.941406 27.28125 14.234375 Z M 27.28125 14.234375 "/>
<path style=" stroke:none;fill-rule:nonzero;fill:rgb(40%,70.196078%,58.039216%);fill-opacity:1;" d="M 20.464844 13.484375 C 19.835938 13.261719 19.136719 12.992188 18.75 12.6875 C 18.644531 12.601562 18.597656 12.402344 18.636719 12.1875 C 18.660156 12.078125 18.753906 11.714844 19.121094 11.605469 C 19.839844 11.390625 20.308594 11.753906 20.359375 11.796875 C 20.679688 12.0625 21.15625 12.019531 21.421875 11.699219 C 21.6875 11.378906 21.644531 10.902344 21.324219 10.636719 C 21.214844 10.546875 20.820312 10.246094 20.21875 10.105469 L 20.21875 9.863281 C 20.21875 9.445312 19.882812 9.109375 19.464844 9.109375 C 19.050781 9.109375 18.710938 9.445312 18.710938 9.863281 L 18.710938 10.152344 C 18.703125 10.15625 18.695312 10.15625 18.6875 10.160156 C 17.902344 10.398438 17.3125 11.066406 17.15625 11.910156 C 17.007812 12.6875 17.265625 13.4375 17.820312 13.875 C 18.269531 14.230469 18.890625 14.527344 19.960938 14.90625 C 20.632812 15.140625 20.617188 15.683594 20.578125 15.90625 C 20.503906 16.359375 20.121094 16.851562 19.460938 16.855469 C 18.785156 16.859375 18.59375 16.828125 18.082031 16.496094 C 17.734375 16.265625 17.265625 16.363281 17.039062 16.714844 C 16.808594 17.0625 16.90625 17.527344 17.257812 17.757812 C 17.808594 18.117188 18.21875 18.273438 18.710938 18.332031 L 18.710938 18.601562 C 18.710938 19.019531 19.050781 19.355469 19.464844 19.355469 C 19.882812 19.355469 20.21875 19.019531 20.21875 18.601562 L 20.21875 18.253906 C 21.253906 17.949219 21.917969 17.046875 22.066406 16.15625 C 22.265625 14.964844 21.621094 13.890625 20.464844 13.484375 Z M 20.464844 13.484375 "/>
<path style=" stroke:none;fill-rule:nonzero;fill:rgb(40%,70.196078%,58.039216%);fill-opacity:1;" d="M 37.796875 18.304688 L 37.796875 22.875 C 37.796875 24.234375 36.695312 25.335938 35.335938 25.335938 L 30.765625 25.335938 C 30.765625 21.449219 33.914062 18.304688 37.796875 18.304688 Z M 37.796875 18.304688 "/>
<path style=" stroke:none;fill-rule:nonzero;fill:rgb(40%,70.196078%,58.039216%);fill-opacity:1;" d="M 37.796875 5.589844 L 37.796875 10.164062 C 33.914062 10.164062 30.765625 7.015625 30.765625 3.132812 L 35.335938 3.132812 C 36.695312 3.132812 37.796875 4.230469 37.796875 5.589844 Z M 37.796875 5.589844 "/>
<path style=" stroke:none;fill-rule:nonzero;fill:rgb(40%,70.196078%,58.039216%);fill-opacity:1;" d="M 8.253906 25.335938 L 3.679688 25.335938 C 2.324219 25.335938 1.222656 24.234375 1.222656 22.875 L 1.222656 18.304688 C 5.105469 18.304688 8.253906 21.449219 8.253906 25.335938 Z M 8.253906 25.335938 "/>
<path style=" stroke:none;fill-rule:nonzero;fill:rgb(40%,70.196078%,58.039216%);fill-opacity:1;" d="M 8.253906 3.132812 C 8.253906 7.015625 5.105469 10.164062 1.222656 10.164062 L 1.222656 5.589844 C 1.222656 4.230469 2.324219 3.132812 3.679688 3.132812 Z M 8.253906 3.132812 "/>
<path style=" stroke:none;fill-rule:nonzero;fill:rgb(40%,70.196078%,58.039216%);fill-opacity:1;" d="M 19.507812 22.757812 C 14.808594 22.757812 10.984375 18.933594 10.984375 14.234375 C 10.984375 9.53125 14.808594 5.707031 19.507812 5.707031 C 24.210938 5.707031 28.035156 9.53125 28.035156 14.234375 C 28.035156 18.933594 24.210938 22.757812 19.507812 22.757812 Z M 19.507812 7.214844 C 15.640625 7.214844 12.492188 10.363281 12.492188 14.234375 C 12.492188 18.101562 15.640625 21.25 19.507812 21.25 C 23.378906 21.25 26.527344 18.101562 26.527344 14.234375 C 26.527344 10.363281 23.378906 7.214844 19.507812 7.214844 Z M 19.507812 7.214844 "/>
<path style=" stroke:none;fill-rule:nonzero;fill:rgb(100%,76.078431%,31.372549%);fill-opacity:1;" d="M 11.601562 40.351562 C 6.527344 40.351562 2.414062 36.234375 2.414062 31.160156 C 2.414062 26.085938 6.527344 21.972656 11.601562 21.972656 L 13.140625 21.972656 L 13.140625 40.351562 Z M 11.601562 40.351562 "/>
<path style=" stroke:none;fill-rule:nonzero;fill:rgb(100%,87.843137%,49.019608%);fill-opacity:1;" d="M 22.328125 31.160156 C 22.328125 36.234375 18.214844 40.351562 13.140625 40.351562 C 8.066406 40.351562 3.953125 36.234375 3.953125 31.160156 C 3.953125 26.085938 8.066406 21.972656 13.140625 21.972656 C 18.214844 21.972656 22.328125 26.085938 22.328125 31.160156 Z M 22.328125 31.160156 "/>
<path style=" stroke:none;fill-rule:nonzero;fill:rgb(100%,76.078431%,31.372549%);fill-opacity:1;" d="M 20.335938 31.160156 C 20.335938 35.136719 17.113281 38.355469 13.140625 38.355469 C 9.167969 38.355469 5.945312 35.136719 5.945312 31.160156 C 5.945312 27.1875 9.167969 23.96875 13.140625 23.96875 C 17.113281 23.96875 20.335938 27.1875 20.335938 31.160156 Z M 20.335938 31.160156 "/>
<path style=" stroke:none;fill-rule:nonzero;fill:rgb(100%,87.843137%,49.019608%);fill-opacity:1;" d="M 18.5625 31.160156 C 18.5625 34.15625 16.132812 36.582031 13.140625 36.582031 C 10.148438 36.582031 7.71875 34.15625 7.71875 31.160156 C 7.71875 28.167969 10.148438 25.742188 13.140625 25.742188 C 16.132812 25.742188 18.5625 28.167969 18.5625 31.160156 Z M 18.5625 31.160156 "/>
<path style=" stroke:none;fill-rule:nonzero;fill:rgb(100%,76.078431%,31.372549%);fill-opacity:1;" d="M 14.046875 31.972656 C 14.15625 31.3125 14.300781 30.582031 14.53125 30.148438 C 14.597656 30.027344 14.785156 29.949219 15.003906 29.949219 C 15.113281 29.953125 15.488281 29.984375 15.664062 30.328125 C 16 30.996094 15.71875 31.519531 15.6875 31.578125 C 15.480469 31.941406 15.605469 32.402344 15.964844 32.609375 C 16.328125 32.816406 16.789062 32.691406 16.996094 32.328125 C 17.066406 32.203125 17.292969 31.765625 17.332031 31.148438 L 17.566406 31.109375 C 17.976562 31.035156 18.253906 30.644531 18.179688 30.234375 C 18.109375 29.824219 17.71875 29.550781 17.308594 29.621094 L 17.023438 29.671875 C 17.019531 29.664062 17.015625 29.65625 17.011719 29.648438 C 16.640625 28.914062 15.878906 28.453125 15.023438 28.441406 C 14.234375 28.433594 13.535156 28.8125 13.203125 29.4375 C 12.929688 29.941406 12.746094 30.605469 12.558594 31.722656 C 12.4375 32.425781 11.902344 32.503906 11.679688 32.503906 C 11.21875 32.507812 10.667969 32.214844 10.550781 31.566406 C 10.429688 30.902344 10.425781 30.707031 10.667969 30.148438 C 10.832031 29.765625 10.652344 29.320312 10.269531 29.15625 C 9.886719 28.992188 9.445312 29.167969 9.28125 29.550781 C 9.019531 30.160156 8.941406 30.589844 8.964844 31.085938 L 8.699219 31.132812 C 8.289062 31.203125 8.015625 31.59375 8.085938 32.003906 C 8.15625 32.414062 8.550781 32.691406 8.960938 32.617188 L 9.300781 32.558594 C 9.78125 33.523438 10.785156 34.019531 11.691406 34.015625 C 12.894531 34.003906 13.839844 33.183594 14.046875 31.972656 Z M 14.046875 31.972656 "/>
<path style=" stroke:none;fill-rule:nonzero;fill:rgb(100%,76.078431%,31.372549%);fill-opacity:1;" d="M 25.382812 32.859375 L 25.382812 49.996094 C 25.253906 50 25.128906 50 25 50 C 23.289062 50 21.621094 49.828125 20.011719 49.5 C 19.246094 49.347656 18.496094 49.15625 17.761719 48.9375 C 15.855469 47.253906 14.65625 44.792969 14.65625 42.046875 C 14.65625 36.976562 18.769531 32.859375 23.84375 32.859375 Z M 25.382812 32.859375 "/>
<path style=" stroke:none;fill-rule:nonzero;fill:rgb(100%,87.843137%,49.019608%);fill-opacity:1;" d="M 34.570312 42.046875 C 34.570312 44.96875 33.207031 47.570312 31.082031 49.253906 C 29.132812 49.742188 27.097656 50 25 50 C 23.289062 50 21.621094 49.828125 20.011719 49.5 C 17.699219 47.835938 16.195312 45.117188 16.195312 42.046875 C 16.195312 36.976562 20.308594 32.859375 25.382812 32.859375 C 30.457031 32.859375 34.570312 36.976562 34.570312 42.046875 Z M 34.570312 42.046875 "/>
<path style=" stroke:none;fill-rule:nonzero;fill:rgb(100%,76.078431%,31.372549%);fill-opacity:1;" d="M 32.578125 42.046875 C 32.578125 46.023438 29.355469 49.242188 25.382812 49.242188 C 21.410156 49.242188 18.1875 46.023438 18.1875 42.046875 C 18.1875 38.074219 21.410156 34.855469 25.382812 34.855469 C 29.355469 34.855469 32.578125 38.074219 32.578125 42.046875 Z M 32.578125 42.046875 "/>
<path style=" stroke:none;fill-rule:nonzero;fill:rgb(100%,87.843137%,49.019608%);fill-opacity:1;" d="M 30.804688 42.046875 C 30.804688 45.042969 28.375 47.46875 25.382812 47.46875 C 22.390625 47.46875 19.960938 45.042969 19.960938 42.046875 C 19.960938 39.054688 22.390625 36.628906 25.382812 36.628906 C 28.375 36.628906 30.804688 39.054688 30.804688 42.046875 Z M 30.804688 42.046875 "/>
<path style=" stroke:none;fill-rule:nonzero;fill:rgb(100%,76.078431%,31.372549%);fill-opacity:1;" d="M 25.527344 40.84375 C 24.925781 41.132812 24.242188 41.433594 23.753906 41.492188 C 23.617188 41.507812 23.445312 41.398438 23.320312 41.21875 C 23.257812 41.128906 23.070312 40.804688 23.25 40.464844 C 23.605469 39.804688 24.195312 39.730469 24.261719 39.726562 C 24.675781 39.6875 24.980469 39.320312 24.945312 38.90625 C 24.90625 38.492188 24.539062 38.183594 24.125 38.222656 C 23.980469 38.234375 23.492188 38.304688 22.964844 38.625 L 22.796875 38.457031 C 22.5 38.160156 22.023438 38.160156 21.730469 38.457031 C 21.433594 38.75 21.433594 39.226562 21.730469 39.523438 L 21.933594 39.726562 C 21.929688 39.734375 21.925781 39.742188 21.921875 39.75 C 21.53125 40.472656 21.589844 41.363281 22.074219 42.070312 C 22.519531 42.722656 23.234375 43.074219 23.933594 42.988281 C 24.503906 42.921875 25.152344 42.695312 26.175781 42.203125 C 26.820312 41.898438 27.191406 42.289062 27.320312 42.472656 C 27.589844 42.847656 27.664062 43.46875 27.203125 43.9375 C 26.726562 44.417969 26.570312 44.53125 25.972656 44.65625 C 25.566406 44.742188 25.304688 45.140625 25.390625 45.550781 C 25.472656 45.957031 25.875 46.21875 26.28125 46.132812 C 26.929688 46 27.328125 45.816406 27.714844 45.511719 L 27.910156 45.703125 C 28.203125 45.996094 28.679688 45.996094 28.976562 45.703125 C 29.269531 45.40625 29.269531 44.929688 28.976562 44.636719 L 28.730469 44.390625 C 29.246094 43.441406 29.074219 42.335938 28.550781 41.597656 C 27.851562 40.617188 26.636719 40.3125 25.527344 40.84375 Z M 25.527344 40.84375 "/>
<path style=" stroke:none;fill-rule:nonzero;fill:rgb(100%,76.078431%,31.372549%);fill-opacity:1;" d="M 36.804688 44.964844 C 31.730469 44.964844 27.617188 40.851562 27.617188 35.777344 C 27.617188 30.703125 31.730469 26.585938 36.804688 26.585938 L 38.34375 26.585938 L 38.34375 44.964844 Z M 36.804688 44.964844 "/>
<path style=" stroke:none;fill-rule:nonzero;fill:rgb(100%,87.843137%,49.019608%);fill-opacity:1;" d="M 47.53125 35.773438 C 47.53125 35.796875 47.53125 35.820312 47.53125 35.84375 C 45.84375 39.34375 43.367188 42.386719 40.332031 44.75 C 39.691406 44.890625 39.027344 44.964844 38.34375 44.964844 C 33.269531 44.964844 29.15625 40.851562 29.15625 35.773438 C 29.15625 30.703125 33.269531 26.589844 38.34375 26.589844 C 43.417969 26.589844 47.53125 30.703125 47.53125 35.773438 Z M 47.53125 35.773438 "/>
<path style=" stroke:none;fill-rule:nonzero;fill:rgb(100%,76.078431%,31.372549%);fill-opacity:1;" d="M 45.539062 35.777344 C 45.539062 39.75 42.320312 42.96875 38.34375 42.96875 C 34.371094 42.96875 31.148438 39.75 31.148438 35.777344 C 31.148438 31.800781 34.371094 28.582031 38.34375 28.582031 C 42.320312 28.582031 45.539062 31.800781 45.539062 35.777344 Z M 45.539062 35.777344 "/>
<path style=" stroke:none;fill-rule:nonzero;fill:rgb(100%,87.843137%,49.019608%);fill-opacity:1;" d="M 43.765625 35.777344 C 43.765625 38.769531 41.339844 41.195312 38.34375 41.195312 C 35.351562 41.195312 32.925781 38.769531 32.925781 35.777344 C 32.925781 32.78125 35.351562 30.355469 38.34375 30.355469 C 41.339844 30.355469 43.765625 32.78125 43.765625 35.777344 Z M 43.765625 35.777344 "/>
<path style=" stroke:none;fill-rule:nonzero;fill:rgb(100%,76.078431%,31.372549%);fill-opacity:1;" d="M 39.300781 35.023438 C 38.667969 34.800781 37.972656 34.535156 37.585938 34.230469 C 37.480469 34.144531 37.433594 33.945312 37.472656 33.730469 C 37.496094 33.621094 37.589844 33.257812 37.957031 33.148438 C 38.675781 32.933594 39.144531 33.296875 39.195312 33.339844 C 39.515625 33.605469 39.992188 33.5625 40.257812 33.242188 C 40.523438 32.921875 40.480469 32.445312 40.160156 32.179688 C 40.050781 32.089844 39.65625 31.789062 39.054688 31.648438 L 39.054688 31.40625 C 39.054688 30.988281 38.71875 30.652344 38.300781 30.652344 C 37.886719 30.652344 37.546875 30.988281 37.546875 31.40625 L 37.546875 31.695312 C 37.539062 31.699219 37.53125 31.699219 37.523438 31.703125 C 36.738281 31.941406 36.148438 32.609375 35.992188 33.453125 C 35.84375 34.226562 36.097656 34.980469 36.65625 35.417969 C 37.105469 35.769531 37.726562 36.070312 38.796875 36.449219 C 39.46875 36.683594 39.453125 37.226562 39.414062 37.445312 C 39.339844 37.902344 38.957031 38.394531 38.296875 38.398438 C 37.621094 38.402344 37.429688 38.371094 36.917969 38.039062 C 36.570312 37.808594 36.101562 37.90625 35.875 38.253906 C 35.644531 38.605469 35.742188 39.070312 36.09375 39.300781 C 36.644531 39.660156 37.054688 39.816406 37.546875 39.875 L 37.546875 40.144531 C 37.546875 40.5625 37.886719 40.898438 38.300781 40.898438 C 38.71875 40.898438 39.054688 40.5625 39.054688 40.144531 L 39.054688 39.796875 C 40.089844 39.492188 40.753906 38.589844 40.902344 37.699219 C 41.101562 36.507812 40.457031 35.433594 39.300781 35.023438 Z M 39.300781 35.023438 "/>
<path style=" stroke:none;fill-rule:nonzero;fill:rgb(100%,100%,100%);fill-opacity:1;" d="M 44.488281 26.046875 L 43.292969 26.046875 L 43.292969 24.851562 C 43.292969 24.207031 42.773438 23.6875 42.128906 23.6875 C 41.484375 23.6875 40.964844 24.207031 40.964844 24.851562 L 40.964844 26.046875 L 39.769531 26.046875 C 39.125 26.046875 38.605469 26.566406 38.605469 27.210938 C 38.605469 27.855469 39.125 28.375 39.769531 28.375 L 40.964844 28.375 L 40.964844 29.570312 C 40.964844 30.214844 41.484375 30.734375 42.128906 30.734375 C 42.773438 30.734375 43.292969 30.214844 43.292969 29.570312 L 43.292969 28.375 L 44.488281 28.375 C 45.132812 28.375 45.65625 27.855469 45.65625 27.210938 C 45.65625 26.566406 45.132812 26.046875 44.488281 26.046875 Z M 44.488281 26.046875 "/>
<path style=" stroke:none;fill-rule:nonzero;fill:rgb(100%,100%,100%);fill-opacity:1;" d="M 19.382812 39.71875 L 18.1875 39.71875 L 18.1875 38.523438 C 18.1875 37.878906 17.664062 37.359375 17.023438 37.359375 C 16.378906 37.359375 15.859375 37.878906 15.859375 38.523438 L 15.859375 39.71875 L 14.664062 39.71875 C 14.019531 39.71875 13.496094 40.242188 13.496094 40.882812 C 13.496094 41.527344 14.019531 42.046875 14.664062 42.046875 L 15.859375 42.046875 L 15.859375 43.246094 C 15.859375 43.886719 16.378906 44.410156 17.023438 44.410156 C 17.667969 44.410156 18.1875 43.886719 18.1875 43.246094 L 18.1875 42.046875 L 19.382812 42.046875 C 20.027344 42.046875 20.546875 41.527344 20.546875 40.882812 C 20.546875 40.242188 20.027344 39.71875 19.382812 39.71875 Z M 19.382812 39.71875 "/>
<path style=" stroke:none;fill-rule:nonzero;fill:rgb(86.666667%,34.117647%,56.470588%);fill-opacity:1;" d="M 50 8.628906 C 50 13.394531 46.136719 17.257812 41.371094 17.257812 C 36.605469 17.257812 32.742188 13.394531 32.742188 8.628906 C 32.742188 3.863281 36.605469 0 41.371094 0 C 46.136719 0 50 3.863281 50 8.628906 Z M 50 8.628906 "/>
<path style=" stroke:none;fill-rule:nonzero;fill:rgb(97.647059%,96.470588%,96.470588%);fill-opacity:1;" d="M 48.632812 8.628906 C 48.632812 12.640625 45.382812 15.890625 41.371094 15.890625 C 37.359375 15.890625 34.109375 12.640625 34.109375 8.628906 C 34.109375 4.617188 37.359375 1.367188 41.371094 1.367188 C 45.382812 1.367188 48.632812 4.617188 48.632812 8.628906 Z M 48.632812 8.628906 "/>
<path style=" stroke:none;fill-rule:nonzero;fill:rgb(97.647059%,96.470588%,96.470588%);fill-opacity:1;" d="M 48.632812 8.628906 C 48.632812 12.640625 45.382812 15.890625 41.371094 15.890625 C 37.359375 15.890625 34.109375 12.640625 34.109375 8.628906 C 34.109375 4.617188 37.359375 1.367188 41.371094 1.367188 C 45.382812 1.367188 48.632812 4.617188 48.632812 8.628906 Z M 48.632812 8.628906 "/>
<path style=" stroke:none;fill-rule:nonzero;fill:rgb(86.666667%,85.490196%,92.54902%);fill-opacity:1;" d="M 42.882812 15.730469 C 42.394531 15.835938 41.890625 15.890625 41.371094 15.890625 C 37.367188 15.890625 34.109375 12.632812 34.109375 8.628906 C 34.109375 4.625 37.367188 1.367188 41.371094 1.367188 C 41.890625 1.367188 42.394531 1.421875 42.882812 1.523438 C 39.601562 2.222656 37.128906 5.140625 37.128906 8.628906 C 37.128906 12.113281 39.601562 15.035156 42.882812 15.730469 Z M 42.882812 15.730469 "/>
<path style=" stroke:none;fill-rule:nonzero;fill:rgb(86.666667%,34.117647%,56.470588%);fill-opacity:1;" d="M 37.542969 12.457031 C 37.058594 11.972656 37.058594 11.183594 37.542969 10.699219 L 43.441406 4.800781 C 43.925781 4.3125 44.714844 4.3125 45.199219 4.800781 C 45.6875 5.285156 45.6875 6.074219 45.199219 6.558594 L 39.300781 12.457031 C 38.816406 12.941406 38.027344 12.941406 37.542969 12.457031 Z M 37.542969 12.457031 "/>
<path style=" stroke:none;fill-rule:nonzero;fill:rgb(86.666667%,34.117647%,56.470588%);fill-opacity:1;" d="M 37.542969 4.800781 C 38.027344 4.3125 38.816406 4.3125 39.300781 4.800781 L 45.199219 10.699219 C 45.6875 11.183594 45.6875 11.972656 45.199219 12.457031 C 44.714844 12.941406 43.925781 12.941406 43.441406 12.457031 L 37.542969 6.558594 C 37.058594 6.074219 37.058594 5.285156 37.542969 4.800781 Z M 37.542969 4.800781 "/>
</g>
</svg>
