<?xml version="1.0" encoding="UTF-8"?>
<svg xmlns="http://www.w3.org/2000/svg" xmlns:xlink="http://www.w3.org/1999/xlink" width="50pt" height="50pt" viewBox="0 0 50 50" version="1.1">
<g id="surface1">
<path style=" stroke:none;fill-rule:nonzero;fill:rgb(98.823529%,81.568627%,68.235294%);fill-opacity:1;" d="M 42.492188 24.605469 C 39.5 24.605469 37.074219 22.175781 37.074219 19.183594 L 37.074219 15.65625 C 37.074219 12.882812 39.324219 10.632812 42.097656 10.632812 L 42.890625 10.632812 C 45.664062 10.632812 47.914062 12.882812 47.914062 15.65625 L 47.914062 19.183594 C 47.914062 22.175781 45.488281 24.605469 42.492188 24.605469 Z M 42.492188 24.605469 "/>
<path style=" stroke:none;fill-rule:nonzero;fill:rgb(92.156863%,93.333333%,94.901961%);fill-opacity:1;" d="M 44.644531 27.257812 L 40.339844 27.257812 C 37.382812 27.257812 34.988281 29.652344 34.988281 32.609375 L 34.988281 37.789062 C 34.988281 38.019531 35.175781 38.203125 35.40625 38.203125 L 49.582031 38.203125 C 49.8125 38.203125 50 38.019531 50 37.789062 L 50 32.609375 C 50 29.652344 47.601562 27.257812 44.644531 27.257812 Z M 44.644531 27.257812 "/>
<path style=" stroke:none;fill-rule:nonzero;fill:rgb(98.823529%,67.058824%,16.078431%);fill-opacity:1;" d="M 42.890625 10.632812 L 42.097656 10.632812 C 39.324219 10.632812 37.074219 12.882812 37.074219 15.65625 L 37.074219 16.617188 C 39.574219 17.359375 43.464844 16.117188 44.554688 14.550781 C 44.949219 15.761719 46.601562 16.535156 47.914062 16.886719 L 47.914062 15.65625 C 47.914062 12.882812 45.664062 10.632812 42.890625 10.632812 Z M 42.890625 10.632812 "/>
<path style=" stroke:none;fill-rule:nonzero;fill:rgb(92.941176%,33.333333%,45.882353%);fill-opacity:1;" d="M 43.179688 27.257812 L 41.808594 27.257812 L 40.429688 33.066406 L 42.492188 35.234375 L 44.554688 33.066406 Z M 43.179688 27.257812 "/>
<path style=" stroke:none;fill-rule:nonzero;fill:rgb(98.823529%,81.568627%,68.235294%);fill-opacity:1;" d="M 7.507812 24.605469 C 4.511719 24.605469 2.085938 22.175781 2.085938 19.183594 L 2.085938 15.65625 C 2.085938 12.882812 4.335938 10.632812 7.109375 10.632812 L 7.902344 10.632812 C 10.675781 10.632812 12.925781 12.882812 12.925781 15.65625 L 12.925781 19.183594 C 12.925781 22.175781 10.5 24.605469 7.507812 24.605469 Z M 7.507812 24.605469 "/>
<path style=" stroke:none;fill-rule:nonzero;fill:rgb(92.156863%,93.333333%,94.901961%);fill-opacity:1;" d="M 9.660156 27.257812 L 5.355469 27.257812 C 2.398438 27.257812 0 29.652344 0 32.609375 L 0 37.789062 C 0 38.019531 0.1875 38.203125 0.417969 38.203125 L 14.59375 38.203125 C 14.824219 38.203125 15.011719 38.019531 15.011719 37.789062 L 15.011719 32.609375 C 15.011719 29.652344 12.617188 27.257812 9.660156 27.257812 Z M 9.660156 27.257812 "/>
<path style=" stroke:none;fill-rule:nonzero;fill:rgb(92.941176%,33.333333%,45.882353%);fill-opacity:1;" d="M 8.191406 27.257812 L 6.820312 27.257812 L 5.445312 33.066406 L 7.507812 35.234375 L 9.570312 33.066406 Z M 8.191406 27.257812 "/>
<path style=" stroke:none;fill-rule:nonzero;fill:rgb(39.607843%,42.745098%,53.333333%);fill-opacity:1;" d="M 28.015625 28.027344 L 21.984375 28.027344 C 20.859375 28.027344 19.792969 28.082031 18.835938 28.523438 C 16.265625 29.714844 14.484375 32.316406 14.484375 35.332031 L 14.484375 42.164062 C 14.484375 42.722656 14.933594 43.171875 15.488281 43.171875 L 34.511719 43.171875 C 35.066406 43.171875 35.515625 42.722656 35.515625 42.164062 L 35.515625 35.332031 C 35.515625 32.320312 33.742188 29.722656 31.179688 28.53125 C 30.21875 28.082031 29.144531 28.027344 28.015625 28.027344 Z M 28.015625 28.027344 "/>
<path style=" stroke:none;fill-rule:nonzero;fill:rgb(26.666667%,28.627451%,40%);fill-opacity:1;" d="M 28.015625 28.027344 L 26.496094 28.027344 C 28.050781 28.027344 29.480469 28.433594 30.617188 29.441406 C 32.160156 30.816406 33.152344 32.945312 33.152344 35.332031 L 33.152344 42.164062 C 33.152344 42.722656 32.753906 43.171875 32.257812 43.171875 L 34.511719 43.171875 C 35.066406 43.171875 35.515625 42.722656 35.515625 42.164062 L 35.515625 35.332031 C 35.515625 32.320312 33.742188 29.722656 31.179688 28.53125 C 30.21875 28.082031 29.144531 28.027344 28.015625 28.027344 Z M 28.015625 28.027344 "/>
<path style=" stroke:none;fill-rule:nonzero;fill:rgb(92.156863%,93.333333%,94.901961%);fill-opacity:1;" d="M 25 39.777344 L 31.164062 28.527344 C 30.207031 28.082031 29.140625 27.832031 28.015625 27.832031 L 21.984375 27.832031 C 20.859375 27.832031 19.792969 28.082031 18.835938 28.527344 Z M 25 39.777344 "/>
<path style=" stroke:none;fill-rule:nonzero;fill:rgb(92.941176%,33.333333%,45.882353%);fill-opacity:1;" d="M 26.09375 30.59375 C 27.195312 30.15625 27.972656 29.085938 27.972656 27.832031 L 22.027344 27.832031 C 22.027344 29.085938 22.804688 30.15625 23.90625 30.59375 L 22.921875 35.988281 L 25 39.777344 L 27.078125 35.988281 Z M 26.09375 30.59375 "/>
<path style=" stroke:none;fill-rule:nonzero;fill:rgb(98.823529%,81.568627%,68.235294%);fill-opacity:1;" d="M 24.976562 24.902344 C 21.085938 24.902344 17.933594 21.746094 17.933594 17.855469 L 17.933594 13.320312 C 17.933594 9.734375 20.839844 6.828125 24.425781 6.828125 L 25.53125 6.828125 C 29.117188 6.828125 32.023438 9.734375 32.023438 13.320312 L 32.023438 17.855469 C 32.023438 21.746094 28.867188 24.902344 24.976562 24.902344 Z M 24.976562 24.902344 "/>
<path style=" stroke:none;fill-rule:nonzero;fill:rgb(89.803922%,62.352941%,41.568627%);fill-opacity:1;" d="M 25.53125 6.828125 L 24.425781 6.828125 C 24.382812 6.828125 24.34375 6.832031 24.304688 6.832031 C 27.199219 6.894531 29.523438 9.261719 29.523438 12.167969 L 29.523438 19.105469 C 29.523438 22.105469 27.246094 24.570312 24.328125 24.871094 C 24.542969 24.890625 24.757812 24.902344 24.976562 24.902344 C 28.867188 24.902344 32.023438 21.746094 32.023438 17.855469 L 32.023438 13.320312 C 32.023438 9.734375 29.117188 6.828125 25.53125 6.828125 Z M 25.53125 6.828125 "/>
<path style=" stroke:none;fill-rule:nonzero;fill:rgb(26.666667%,28.627451%,40%);fill-opacity:1;" d="M 25.53125 6.828125 L 24.425781 6.828125 C 20.871094 6.828125 17.988281 9.683594 17.933594 13.222656 C 19.136719 14.558594 20.929688 15.683594 22.285156 16.035156 C 21.929688 15.332031 21.199219 13.648438 21.578125 12.0625 C 22.757812 13.644531 28.199219 16.257812 32.023438 17.203125 L 32.023438 13.320312 C 32.023438 9.734375 29.117188 6.828125 25.53125 6.828125 Z M 25.53125 6.828125 "/>
<path style=" stroke:none;fill-rule:nonzero;fill:rgb(18.039216%,20.392157%,29.803922%);fill-opacity:1;" d="M 25.53125 6.828125 L 24.425781 6.828125 C 24.382812 6.828125 24.34375 6.832031 24.304688 6.832031 C 27.199219 6.894531 29.523438 9.261719 29.523438 12.167969 L 29.523438 16.4375 C 30.390625 16.746094 31.242188 17.011719 32.023438 17.203125 L 32.023438 13.320312 C 32.023438 9.734375 29.117188 6.828125 25.53125 6.828125 Z M 25.53125 6.828125 "/>
<path style=" stroke:none;fill-rule:nonzero;fill:rgb(98.823529%,67.058824%,16.078431%);fill-opacity:1;" d="M 2.085938 15.65625 L 10.570312 15.65625 C 12.984375 15.65625 14.941406 13.703125 14.941406 11.289062 L 14.941406 9.53125 L 6.449219 9.53125 C 4.039062 9.53125 2.085938 11.484375 2.085938 13.890625 C 2.085938 13.890625 2.085938 15.65625 2.085938 15.65625 Z M 2.085938 15.65625 "/>
</g>
</svg>
