<?xml version="1.0" encoding="UTF-8"?>
<svg xmlns="http://www.w3.org/2000/svg" xmlns:xlink="http://www.w3.org/1999/xlink" width="50pt" height="50pt" viewBox="0 0 50 50" version="1.1">
<g id="surface1">
<path style=" stroke:none;fill-rule:nonzero;fill:rgb(27.058824%,35.294118%,39.215686%);fill-opacity:1;" d="M 31.25 0 L 6.25 0 C 4.527344 0 3.125 1.402344 3.125 3.125 L 3.125 46.875 C 3.125 48.601562 4.527344 50 6.25 50 L 31.25 50 C 32.976562 50 34.375 48.601562 34.375 46.875 L 34.375 3.125 C 34.375 1.402344 32.976562 0 31.25 0 Z M 31.25 0 "/>
<path style=" stroke:none;fill-rule:nonzero;fill:rgb(92.54902%,93.72549%,94.509804%);fill-opacity:1;" d="M 6.25 6.25 L 31.25 6.25 L 31.25 40.625 L 6.25 40.625 Z M 6.25 6.25 "/>
<path style=" stroke:none;fill-rule:nonzero;fill:rgb(12.941176%,58.823529%,95.294118%);fill-opacity:1;" d="M 43.75 12.5 L 25 12.5 C 23.277344 12.5 21.875 13.902344 21.875 15.625 L 21.875 28.125 C 21.875 29.878906 23.246094 31.25 25 31.25 L 28.125 31.25 L 28.125 34.375 C 28.125 34.964844 28.460938 35.507812 28.988281 35.773438 C 29.210938 35.882812 29.449219 35.9375 29.6875 35.9375 C 30.019531 35.9375 30.351562 35.832031 30.625 35.625 L 36.460938 31.25 L 43.75 31.25 C 45.503906 31.25 46.875 29.878906 46.875 28.125 L 46.875 15.625 C 46.875 13.871094 45.503906 12.5 43.75 12.5 Z M 43.75 12.5 "/>
<path style=" stroke:none;fill-rule:nonzero;fill:rgb(98.039216%,98.039216%,98.039216%);fill-opacity:1;" d="M 29.75 23.4375 C 28.886719 23.4375 28.171875 22.738281 28.171875 21.875 C 28.171875 21.011719 28.851562 20.3125 29.71875 20.3125 L 29.75 20.3125 C 30.613281 20.3125 31.3125 21.011719 31.3125 21.875 C 31.3125 22.738281 30.613281 23.4375 29.75 23.4375 Z M 29.75 23.4375 "/>
<path style=" stroke:none;fill-rule:nonzero;fill:rgb(98.039216%,98.039216%,98.039216%);fill-opacity:1;" d="M 39.125 23.4375 C 38.265625 23.4375 37.546875 22.738281 37.546875 21.875 C 37.546875 21.011719 38.230469 20.3125 39.09375 20.3125 L 39.125 20.3125 C 39.988281 20.3125 40.6875 21.011719 40.6875 21.875 C 40.6875 22.738281 39.988281 23.4375 39.125 23.4375 Z M 39.125 23.4375 "/>
</g>
</svg>
