<?xml version="1.0" encoding="UTF-8"?>
<svg xmlns="http://www.w3.org/2000/svg" xmlns:xlink="http://www.w3.org/1999/xlink" width="50pt" height="50pt" viewBox="0 0 50 50" version="1.1">
<g id="surface1">
<path style=" stroke:none;fill-rule:nonzero;fill:rgb(81.568627%,0%,31.372549%);fill-opacity:1;" d="M 50 12.542969 L 50 13.128906 C 50 14.746094 49.371094 16.265625 48.230469 17.40625 L 39.707031 25.929688 L 39.707031 8.238281 C 40.84375 7.113281 42.351562 6.496094 43.953125 6.496094 C 47.289062 6.496094 50 9.207031 50 12.542969 Z M 50 12.542969 "/>
<path style=" stroke:none;fill-rule:nonzero;fill:rgb(100%,29.019608%,29.019608%);fill-opacity:1;" d="M 39.707031 8.238281 L 39.707031 25.929688 L 31.183594 17.40625 C 30.042969 16.265625 29.410156 14.746094 29.410156 13.128906 L 29.410156 12.542969 C 29.410156 9.207031 32.125 6.496094 35.457031 6.496094 C 37.058594 6.496094 38.566406 7.113281 39.707031 8.238281 Z M 39.707031 8.238281 "/>
<path style=" stroke:none;fill-rule:nonzero;fill:rgb(90.980392%,90.196078%,94.901961%);fill-opacity:1;" d="M 26.46875 8.597656 L 26.46875 32.351562 L 20.589844 32.351562 L 20.589844 36.765625 L 13.234375 36.765625 L 13.234375 0 L 17.875 0 C 22.613281 0 26.46875 3.855469 26.46875 8.597656 Z M 26.46875 8.597656 "/>
<path style=" stroke:none;fill-rule:nonzero;fill:rgb(100%,96.078431%,96.078431%);fill-opacity:1;" d="M 13.234375 0 L 13.234375 36.765625 L 5.882812 36.765625 L 5.882812 32.351562 L 0 32.351562 L 0 8.597656 C 0 3.855469 3.855469 0 8.597656 0 Z M 13.234375 0 "/>
<path style=" stroke:none;fill-rule:nonzero;fill:rgb(100%,52.941176%,34.901961%);fill-opacity:1;" d="M 38.234375 16.667969 L 38.234375 35.292969 C 38.234375 41.78125 32.957031 47.058594 26.46875 47.058594 C 19.984375 47.058594 14.707031 41.78125 14.707031 35.292969 L 14.707031 25 L 11.765625 25 L 11.765625 35.292969 C 11.765625 37.589844 12.292969 39.765625 13.234375 41.703125 C 15.621094 46.609375 20.65625 50 26.46875 50 C 34.578125 50 41.175781 43.402344 41.175781 35.292969 L 41.175781 16.667969 Z M 38.234375 16.667969 "/>
<path style=" stroke:none;fill-rule:nonzero;fill:rgb(81.568627%,0%,31.372549%);fill-opacity:1;" d="M 20.589844 11.257812 L 20.589844 26.46875 L 13.234375 26.46875 L 13.234375 5.882812 L 15.210938 5.882812 C 18.175781 5.882812 20.589844 8.292969 20.589844 11.257812 Z M 20.589844 11.257812 "/>
<path style=" stroke:none;fill-rule:nonzero;fill:rgb(100%,29.019608%,29.019608%);fill-opacity:1;" d="M 13.234375 5.882812 L 13.234375 26.46875 L 5.882812 26.46875 L 5.882812 11.257812 C 5.882812 8.292969 8.292969 5.882812 11.257812 5.882812 Z M 13.234375 5.882812 "/>
</g>
</svg>
