<?xml version="1.0" encoding="UTF-8"?>
<svg xmlns="http://www.w3.org/2000/svg" xmlns:xlink="http://www.w3.org/1999/xlink" width="200pt" height="200pt" viewBox="0 0 200 200" version="1.1">
<g id="surface1">
<path style=" stroke:none;fill-rule:nonzero;fill:rgb(100%,87.45098%,72.941176%);fill-opacity:1;" d="M 166.558594 179.835938 L 166.558594 196.777344 C 166.558594 198.683594 165.015625 200.230469 163.109375 200.230469 L 37.117188 200.230469 C 35.210938 200.230469 33.667969 198.683594 33.667969 196.777344 L 33.667969 179.835938 C 33.667969 162.066406 48.074219 147.667969 65.851562 147.660156 C 72.132812 147.660156 77.664062 144.425781 80.847656 139.527344 C 84.046875 134.609375 83.71875 130.332031 83.71875 126.878906 L 83.785156 126.71875 C 68.292969 120.308594 57.398438 105.046875 57.398438 87.238281 L 57.398438 85.886719 C 51.246094 85.886719 46.613281 81.027344 46.613281 75.300781 L 46.613281 57.367188 C 46.472656 51.121094 46.757812 29.105469 62.664062 13.773438 C 81.15625 -4.050781 110.460938 -2.589844 131.691406 6.945312 C 132.378906 7.253906 132.359375 8.246094 131.660156 8.53125 L 126.125 10.8125 C 125.292969 11.152344 125.472656 12.371094 126.363281 12.464844 L 129.050781 12.757812 C 141.921875 14.136719 153.878906 21.121094 161.289062 32.753906 C 161.488281 33.070312 161.433594 33.550781 161.175781 33.824219 C 156.605469 38.660156 154.050781 45.078125 154.050781 51.753906 L 154.050781 75.300781 C 154.050781 81.144531 149.308594 85.886719 143.460938 85.886719 L 142.832031 85.886719 L 142.832031 87.238281 C 142.832031 105.046875 131.9375 120.308594 116.445312 126.71875 L 116.511719 126.878906 C 116.511719 130.234375 116.152344 134.566406 119.378906 139.527344 C 122.566406 144.425781 128.097656 147.660156 134.378906 147.660156 C 152.152344 147.667969 166.558594 162.066406 166.558594 179.835938 Z M 166.558594 179.835938 "/>
<path style=" stroke:none;fill-rule:nonzero;fill:rgb(99.607843%,30.980392%,37.647059%);fill-opacity:1;" d="M 166.558594 179.835938 L 166.558594 196.777344 C 166.558594 198.683594 165.015625 200.230469 163.109375 200.230469 L 37.117188 200.230469 C 35.210938 200.230469 33.667969 198.683594 33.667969 196.777344 L 33.667969 179.835938 C 33.667969 162.066406 48.078125 147.667969 65.847656 147.660156 C 72.132812 147.660156 77.664062 144.425781 80.847656 139.527344 C 91.964844 149.019531 108.261719 149.023438 119.378906 139.527344 C 122.5625 144.425781 128.097656 147.660156 134.378906 147.660156 C 152.152344 147.667969 166.558594 162.066406 166.558594 179.835938 Z M 166.558594 179.835938 "/>
<path style=" stroke:none;fill-rule:nonzero;fill:rgb(25.882353%,26.27451%,30.196078%);fill-opacity:1;" d="M 161.285156 32.757812 C 161.488281 33.074219 161.433594 33.550781 161.175781 33.820312 C 156.605469 38.660156 154.050781 45.078125 154.050781 51.753906 L 154.050781 75.300781 C 154.050781 80.644531 150.019531 85.886719 142.832031 85.886719 L 142.832031 59.234375 C 142.832031 47.796875 133.558594 38.523438 122.121094 38.523438 L 78.109375 38.523438 C 66.667969 38.523438 57.398438 47.796875 57.398438 59.234375 L 57.398438 85.886719 C 51.246094 85.886719 46.613281 81.027344 46.613281 75.300781 L 46.613281 57.367188 C 46.472656 51.121094 46.757812 29.105469 62.664062 13.773438 C 81.152344 -4.050781 110.464844 -2.589844 131.6875 6.945312 C 132.378906 7.253906 132.363281 8.246094 131.660156 8.535156 L 126.125 10.8125 C 125.296875 11.152344 125.472656 12.371094 126.363281 12.464844 L 129.050781 12.757812 C 141.925781 14.132812 153.875 21.121094 161.285156 32.757812 Z M 161.285156 32.757812 "/>
<path style=" stroke:none;fill-rule:nonzero;fill:rgb(100%,92.156863%,82.352941%);fill-opacity:1;" d="M 142.832031 87.238281 C 142.832031 110.839844 123.695312 129.953125 100.113281 129.953125 C 77.894531 129.953125 57.398438 112.683594 57.398438 85.886719 L 57.398438 59.234375 C 57.398438 47.796875 66.667969 38.523438 78.109375 38.523438 L 122.121094 38.523438 C 133.558594 38.523438 142.832031 47.796875 142.832031 59.234375 Z M 142.832031 87.238281 "/>
<path style=" stroke:none;fill-rule:nonzero;fill:rgb(100%,100%,100%);fill-opacity:1;" d="M 135.0625 192.894531 L 124.707031 192.894531 C 122.800781 192.894531 121.257812 191.347656 121.257812 189.441406 C 121.257812 187.535156 122.800781 185.988281 124.707031 185.988281 L 135.0625 185.988281 C 136.972656 185.988281 138.515625 187.535156 138.515625 189.441406 C 138.515625 191.347656 136.972656 192.894531 135.0625 192.894531 Z M 135.0625 192.894531 "/>
<path style=" stroke:none;fill-rule:nonzero;fill:rgb(100%,95.294118%,89.411765%);fill-opacity:1;" d="M 90.441406 114.820312 C 97.464844 119.214844 91.925781 129.988281 84.238281 126.902344 C 68.433594 120.558594 57.398438 105.15625 57.398438 87.238281 L 57.398438 59.234375 C 57.398438 54.886719 58.742188 50.847656 61.03125 47.511719 C 63.84375 43.425781 70.339844 45.230469 70.339844 50.605469 L 70.339844 78.605469 C 70.339844 94.363281 78.621094 107.425781 90.441406 114.820312 Z M 90.441406 114.820312 "/>
<path style=" stroke:none;fill-rule:nonzero;fill:rgb(100%,83.921569%,65.098039%);fill-opacity:1;" d="M 116.996094 133.964844 C 106.367188 138.410156 94.6875 138.757812 83.230469 133.964844 C 83.816406 131.535156 83.71875 129.964844 83.71875 126.878906 L 83.785156 126.71875 C 94.175781 131.03125 106.035156 131.042969 116.445312 126.71875 L 116.511719 126.878906 C 116.511719 129.964844 116.410156 131.535156 116.996094 133.964844 Z M 116.996094 133.964844 "/>
<path style=" stroke:none;fill-rule:nonzero;fill:rgb(100%,42.745098%,47.843137%);fill-opacity:1;" d="M 83.238281 158.085938 C 81.640625 158.589844 79.929688 158.863281 78.09375 158.878906 C 60.277344 159.035156 45.75 173.128906 45.75 190.941406 L 45.75 194.1875 C 45.75 197.527344 43.042969 200.230469 39.707031 200.230469 L 37.117188 200.230469 C 35.210938 200.230469 33.667969 198.683594 33.667969 196.777344 L 33.667969 179.835938 C 33.667969 162.066406 48.078125 147.667969 65.847656 147.660156 C 72.132812 147.660156 77.664062 144.425781 80.847656 139.527344 C 82.132812 140.621094 83.503906 141.605469 84.953125 142.46875 C 91.316406 146.261719 90.304688 155.863281 83.238281 158.085938 Z M 83.238281 158.085938 "/>
<path style=" stroke:none;fill-rule:nonzero;fill:rgb(90.980392%,28.235294%,34.117647%);fill-opacity:1;" d="M 116.992188 158.085938 C 118.589844 158.589844 120.300781 158.863281 122.136719 158.878906 C 139.953125 159.035156 154.480469 173.128906 154.480469 190.941406 L 154.480469 194.1875 C 154.480469 197.527344 157.183594 200.230469 160.519531 200.230469 L 163.109375 200.230469 C 165.015625 200.230469 166.558594 198.683594 166.558594 196.777344 L 166.558594 179.835938 C 166.558594 162.066406 152.152344 147.667969 134.378906 147.660156 C 128.097656 147.660156 122.566406 144.425781 119.378906 139.527344 C 118.097656 140.621094 116.722656 141.605469 115.273438 142.46875 C 108.910156 146.261719 109.925781 155.863281 116.992188 158.085938 Z M 116.992188 158.085938 "/>
<path style=" stroke:none;fill-rule:nonzero;fill:rgb(30.196078%,30.588235%,34.901961%);fill-opacity:1;" d="M 131.660156 8.53125 C 126.585938 10.621094 125.863281 11.082031 124.105469 10.808594 C 95.769531 6.417969 70.90625 18.140625 62.464844 45.667969 C 59.304688 49.300781 57.398438 54.050781 57.398438 59.234375 L 57.398438 75.425781 C 57.398438 82.410156 46.613281 82.894531 46.613281 75.300781 L 46.613281 57.367188 C 46.472656 51.121094 46.757812 29.105469 62.664062 13.773438 C 81.15625 -4.050781 110.460938 -2.589844 131.691406 6.945312 C 132.378906 7.253906 132.359375 8.246094 131.660156 8.53125 Z M 131.660156 8.53125 "/>
</g>
</svg>
