<?xml version="1.0" encoding="UTF-8"?>
<svg xmlns="http://www.w3.org/2000/svg" xmlns:xlink="http://www.w3.org/1999/xlink" width="200pt" height="200pt" viewBox="0 0 200 200" version="1.1">
<g id="surface1">
<path style=" stroke:none;fill-rule:nonzero;fill:rgb(100%,88.235294%,32.156863%);fill-opacity:1;" d="M 200 100 C 200 114.792969 196.789062 128.832031 191.023438 141.464844 C 181.171875 163.0625 163.859375 180.535156 142.386719 190.601562 C 138.496094 192.421875 134.46875 194 130.320312 195.3125 C 125.65625 196.804688 120.84375 197.949219 115.90625 198.738281 C 115.886719 198.742188 115.863281 198.746094 115.839844 198.746094 C 113.417969 199.136719 110.972656 199.433594 108.496094 199.640625 C 107.964844 199.6875 107.4375 199.726562 106.90625 199.761719 C 106.160156 199.8125 105.40625 199.855469 104.652344 199.890625 C 103.109375 199.964844 101.558594 200 100 200 C 98.398438 200 96.8125 199.964844 95.234375 199.886719 C 94.519531 199.851562 93.804688 199.8125 93.089844 199.757812 C 92.554688 199.722656 92.023438 199.6875 91.492188 199.640625 C 88.957031 199.429688 86.449219 199.117188 83.972656 198.71875 C 82.789062 198.527344 81.609375 198.320312 80.441406 198.085938 C 75.375 197.082031 70.453125 195.699219 65.699219 193.960938 C 62.941406 192.953125 60.246094 191.832031 57.609375 190.597656 C 56.710938 190.175781 55.816406 189.738281 54.929688 189.285156 C 52.652344 188.132812 50.429688 186.898438 48.257812 185.578125 C 37.378906 178.992188 27.859375 170.386719 20.210938 160.285156 C 15.621094 154.21875 11.707031 147.617188 8.578125 140.578125 C 3.066406 128.179688 0 114.449219 0 100 C 0 44.769531 44.769531 0 100 0 C 155.230469 0 200 44.769531 200 100 Z M 200 100 "/>
<path style=" stroke:none;fill-rule:nonzero;fill:rgb(16.862745%,63.137255%,81.176471%);fill-opacity:1;" d="M 80.441406 129.769531 L 80.441406 198.085938 C 75.375 197.082031 70.453125 195.699219 65.699219 193.960938 C 62.941406 192.953125 60.246094 191.832031 57.609375 190.597656 C 56.710938 190.175781 55.816406 189.738281 54.929688 189.285156 C 52.652344 188.136719 50.429688 186.898438 48.257812 185.578125 C 37.378906 178.992188 27.859375 170.386719 20.210938 160.285156 C 15.621094 154.21875 11.707031 147.617188 8.578125 140.578125 L 8.578125 129.769531 C 8.578125 117.234375 17.09375 106.683594 28.65625 103.59375 C 29.082031 103.476562 29.507812 103.371094 29.9375 103.28125 C 31.085938 103.027344 32.265625 102.855469 33.464844 102.757812 C 34.195312 102.703125 34.933594 102.667969 35.679688 102.667969 L 53.335938 102.667969 C 55.304688 102.667969 57.226562 102.878906 59.082031 103.28125 C 59.1875 103.300781 59.292969 103.328125 59.398438 103.351562 C 59.710938 103.421875 60.023438 103.496094 60.332031 103.578125 C 60.339844 103.585938 60.347656 103.585938 60.355469 103.585938 C 63.40625 104.402344 66.246094 105.738281 68.769531 107.492188 C 75.824219 112.386719 80.441406 120.539062 80.441406 129.769531 Z M 80.441406 129.769531 "/>
<path style=" stroke:none;fill-rule:nonzero;fill:rgb(40%,72.941176%,92.941176%);fill-opacity:1;" d="M 80.441406 129.769531 L 80.441406 198.085938 C 75.375 197.082031 70.453125 195.699219 65.699219 193.960938 C 62.941406 192.953125 60.246094 191.832031 57.609375 190.597656 C 56.710938 190.175781 55.816406 189.738281 54.929688 189.285156 C 52.652344 188.136719 50.429688 186.898438 48.257812 185.578125 C 37.378906 178.992188 27.859375 170.386719 20.210938 160.285156 L 20.210938 129.769531 C 20.210938 117.234375 28.726562 106.683594 40.289062 103.59375 C 40.714844 103.476562 41.140625 103.371094 41.570312 103.28125 C 42.71875 103.027344 43.898438 102.855469 45.097656 102.757812 C 45.828125 102.703125 46.566406 102.667969 47.3125 102.667969 L 53.335938 102.667969 C 55.304688 102.667969 57.226562 102.878906 59.082031 103.28125 C 59.1875 103.300781 59.292969 103.328125 59.398438 103.351562 C 59.710938 103.421875 60.023438 103.496094 60.332031 103.578125 C 60.339844 103.585938 60.347656 103.585938 60.355469 103.585938 C 63.40625 104.402344 66.246094 105.738281 68.769531 107.492188 C 75.824219 112.386719 80.441406 120.539062 80.441406 129.769531 Z M 80.441406 129.769531 "/>
<path style=" stroke:none;fill-rule:nonzero;fill:rgb(94.901961%,94.117647%,92.54902%);fill-opacity:1;" d="M 60.421875 103.28125 L 60.359375 103.585938 L 52.25 141.300781 C 51.472656 144.921875 48.28125 147.550781 44.578125 147.554688 C 44.554688 147.554688 44.53125 147.554688 44.511719 147.554688 C 44.488281 147.554688 44.464844 147.554688 44.441406 147.554688 C 40.734375 147.550781 37.546875 144.921875 36.765625 141.300781 L 28.660156 103.589844 L 28.59375 103.28125 Z M 60.421875 103.28125 "/>
<path style=" stroke:none;fill-rule:nonzero;fill:rgb(84.705882%,83.529412%,81.568627%);fill-opacity:1;" d="M 44.507812 113.765625 L 32.304688 120.546875 L 28.59375 103.28125 L 36.175781 98.816406 "/>
<path style=" stroke:none;fill-rule:nonzero;fill:rgb(84.705882%,83.529412%,81.568627%);fill-opacity:1;" d="M 44.507812 113.765625 L 56.710938 120.546875 L 60.421875 103.28125 L 52.839844 98.816406 "/>
<path style=" stroke:none;fill-rule:nonzero;fill:rgb(80%,47.843137%,23.137255%);fill-opacity:1;" d="M 8.078125 96.136719 L 8.078125 55.261719 C 8.078125 51.109375 8.769531 47.039062 10.136719 43.164062 C 15.253906 28.609375 29.066406 18.824219 44.511719 18.824219 C 46.421875 18.824219 48.332031 18.972656 50.1875 19.265625 C 58.671875 20.589844 66.457031 24.921875 72.101562 31.460938 C 77.804688 38.070312 80.945312 46.519531 80.945312 55.261719 L 80.945312 96.136719 "/>
<path style=" stroke:none;fill-rule:nonzero;fill:rgb(63.921569%,32.941176%,9.411765%);fill-opacity:1;" d="M 23.0625 56.855469 C 23.0625 71.316406 31.53125 88.042969 36.179688 96.136719 L 8.074219 96.136719 L 8.074219 55.261719 C 8.074219 51.109375 8.769531 47.039062 10.136719 43.164062 C 15.21875 28.691406 28.90625 18.9375 44.246094 18.828125 C 33.042969 19.105469 23.0625 37.078125 23.0625 56.855469 Z M 23.0625 56.855469 "/>
<path style=" stroke:none;fill-rule:nonzero;fill:rgb(91.764706%,70.980392%,60%);fill-opacity:1;" d="M 54.179688 92.230469 L 54.179688 104.097656 C 54.179688 108.441406 51.316406 112.113281 47.371094 113.332031 C 46.46875 113.613281 45.503906 113.765625 44.511719 113.765625 C 39.167969 113.765625 34.84375 109.4375 34.84375 104.097656 L 34.84375 92.230469 Z M 54.179688 92.230469 "/>
<path style=" stroke:none;fill-rule:nonzero;fill:rgb(96.470588%,79.215686%,68.235294%);fill-opacity:1;" d="M 54.179688 103.34375 L 54.179688 104.097656 C 54.179688 108.441406 51.316406 112.113281 47.371094 113.332031 C 43.8125 112.238281 41.132812 109.144531 40.640625 105.355469 C 41.285156 105.394531 41.9375 105.414062 42.585938 105.414062 C 44.417969 105.414062 46.210938 105.269531 47.957031 104.984375 C 50.109375 104.636719 52.191406 104.082031 54.179688 103.34375 Z M 54.179688 103.34375 "/>
<path style=" stroke:none;fill-rule:nonzero;fill:rgb(96.470588%,79.215686%,68.235294%);fill-opacity:1;" d="M 17.984375 72.78125 C 17.984375 77.257812 14.714844 80.96875 10.433594 81.65625 C 9.964844 81.734375 9.484375 81.773438 8.992188 81.773438 C 4.023438 81.773438 0 77.75 0 72.78125 C 0 67.8125 4.023438 63.789062 8.992188 63.789062 C 9.484375 63.789062 9.964844 63.828125 10.433594 63.902344 C 14.714844 64.59375 17.984375 68.304688 17.984375 72.78125 Z M 17.984375 72.78125 "/>
<path style=" stroke:none;fill-rule:nonzero;fill:rgb(91.764706%,70.980392%,60%);fill-opacity:1;" d="M 17.984375 72.78125 C 17.984375 77.257812 14.714844 80.96875 10.433594 81.65625 C 9.65625 78.828125 9.238281 75.851562 9.238281 72.78125 C 9.238281 69.707031 9.65625 66.730469 10.433594 63.902344 C 14.714844 64.59375 17.984375 68.304688 17.984375 72.78125 Z M 17.984375 72.78125 "/>
<path style=" stroke:none;fill-rule:nonzero;fill:rgb(91.764706%,70.980392%,60%);fill-opacity:1;" d="M 12.207031 72.78125 C 12.207031 74.554688 10.769531 75.996094 8.992188 75.996094 C 7.21875 75.996094 5.777344 74.554688 5.777344 72.78125 C 5.777344 71.003906 7.21875 69.566406 8.992188 69.566406 C 10.769531 69.566406 12.207031 71.003906 12.207031 72.78125 Z M 12.207031 72.78125 "/>
<path style=" stroke:none;fill-rule:nonzero;fill:rgb(91.764706%,70.980392%,60%);fill-opacity:1;" d="M 67.601562 61.296875 L 67.601562 92.207031 C 62.824219 96.769531 56.695312 99.929688 49.882812 101.027344 C 49.828125 101.035156 49.769531 101.046875 49.714844 101.054688 C 48.023438 101.324219 46.285156 101.457031 44.511719 101.457031 C 26.03125 101.457031 11.054688 86.480469 11.054688 68.003906 L 11.054688 55.261719 C 11.054688 53.628906 11.167969 52.023438 11.394531 50.457031 C 19.355469 56.179688 30.769531 55.617188 38.042969 48.742188 C 40.449219 46.46875 42.125 43.757812 43.070312 40.886719 C 43.597656 45.917969 45.898438 50.8125 49.976562 54.667969 C 54.832031 59.253906 61.246094 61.464844 67.601562 61.296875 Z M 67.601562 61.296875 "/>
<path style=" stroke:none;fill-rule:nonzero;fill:rgb(96.470588%,79.215686%,68.235294%);fill-opacity:1;" d="M 67.601562 61.296875 L 67.601562 92.207031 C 62.824219 96.769531 56.695312 99.929688 49.882812 101.027344 C 49.828125 101.035156 49.769531 101.046875 49.714844 101.054688 C 33.710938 98.554688 21.472656 84.703125 21.472656 68.003906 L 21.472656 55.261719 C 21.472656 54.921875 21.476562 54.585938 21.492188 54.25 C 27.390625 54.855469 33.515625 53.019531 38.042969 48.742188 C 40.449219 46.46875 42.125 43.757812 43.070312 40.886719 C 43.597656 45.917969 45.898438 50.8125 49.976562 54.667969 C 54.832031 59.253906 61.246094 61.464844 67.601562 61.296875 Z M 67.601562 61.296875 "/>
<path style=" stroke:none;fill-rule:nonzero;fill:rgb(91.764706%,70.980392%,60%);fill-opacity:1;" d="M 62.480469 65.175781 C 62.480469 62.105469 59.992188 59.617188 56.921875 59.617188 C 53.855469 59.617188 51.367188 62.105469 51.367188 65.175781 "/>
<path style=" stroke:none;fill-rule:nonzero;fill:rgb(91.764706%,70.980392%,60%);fill-opacity:1;" d="M 37.660156 65.175781 C 37.660156 62.105469 35.171875 59.617188 32.101562 59.617188 C 29.035156 59.617188 26.546875 62.105469 26.546875 65.175781 "/>
<path style=" stroke:none;fill-rule:nonzero;fill:rgb(23.921569%,25.490196%,34.901961%);fill-opacity:1;" d="M 35.898438 67.542969 C 35.898438 69.636719 34.199219 71.335938 32.101562 71.335938 C 30.007812 71.335938 28.308594 69.636719 28.308594 67.542969 C 28.308594 65.445312 30.007812 63.746094 32.101562 63.746094 C 34.199219 63.746094 35.898438 65.445312 35.898438 67.542969 Z M 35.898438 67.542969 "/>
<path style=" stroke:none;fill-rule:nonzero;fill:rgb(23.921569%,25.490196%,34.901961%);fill-opacity:1;" d="M 60.71875 67.542969 C 60.71875 69.636719 59.019531 71.335938 56.921875 71.335938 C 54.828125 71.335938 53.128906 69.636719 53.128906 67.542969 C 53.128906 65.445312 54.828125 63.746094 56.921875 63.746094 C 59.019531 63.746094 60.71875 65.445312 60.71875 67.542969 Z M 60.71875 67.542969 "/>
<path style=" stroke:none;fill-rule:nonzero;fill:rgb(91.764706%,70.980392%,60%);fill-opacity:1;" d="M 48.308594 77.097656 L 40.71875 77.097656 C 39.8125 77.097656 39.082031 76.363281 39.082031 75.460938 C 39.082031 74.558594 39.8125 73.824219 40.71875 73.824219 L 48.308594 73.824219 C 49.210938 73.824219 49.945312 74.558594 49.945312 75.460938 C 49.945312 76.363281 49.210938 77.097656 48.308594 77.097656 Z M 48.308594 77.097656 "/>
<path style=" stroke:none;fill-rule:nonzero;fill:rgb(91.764706%,70.980392%,60%);fill-opacity:1;" d="M 44.511719 87.457031 C 41.710938 87.457031 38.910156 86.753906 36.355469 85.351562 C 35.636719 84.953125 35.371094 84.050781 35.769531 83.328125 C 36.164062 82.609375 37.070312 82.347656 37.789062 82.742188 C 42 85.058594 47.027344 85.058594 51.234375 82.742188 C 51.957031 82.34375 52.859375 82.609375 53.257812 83.328125 C 53.652344 84.050781 53.390625 84.953125 52.671875 85.351562 C 50.117188 86.753906 47.3125 87.457031 44.511719 87.457031 Z M 44.511719 87.457031 "/>
<path style=" stroke:none;fill-rule:nonzero;fill:rgb(100%,100%,100%);fill-opacity:1;" d="M 35.125 66.871094 C 35.125 67.769531 34.394531 68.5 33.5 68.5 C 32.601562 68.5 31.871094 67.769531 31.871094 66.871094 C 31.871094 65.972656 32.601562 65.246094 33.5 65.246094 C 34.394531 65.246094 35.125 65.972656 35.125 66.871094 Z M 35.125 66.871094 "/>
<path style=" stroke:none;fill-rule:nonzero;fill:rgb(100%,100%,100%);fill-opacity:1;" d="M 60.128906 66.871094 C 60.128906 67.769531 59.402344 68.5 58.503906 68.5 C 57.605469 68.5 56.878906 67.769531 56.878906 66.871094 C 56.878906 65.972656 57.605469 65.246094 58.503906 65.246094 C 59.402344 65.246094 60.128906 65.972656 60.128906 66.871094 Z M 60.128906 66.871094 "/>
<path style=" stroke:none;fill-rule:nonzero;fill:rgb(91.764706%,70.980392%,60%);fill-opacity:1;" d="M 67.285156 76.785156 C 67.285156 79.085938 65.417969 80.953125 63.117188 80.953125 C 60.816406 80.953125 58.949219 79.085938 58.949219 76.785156 C 58.949219 74.484375 60.816406 72.617188 63.117188 72.617188 C 65.417969 72.617188 67.285156 74.484375 67.285156 76.785156 Z M 67.285156 76.785156 "/>
<path style=" stroke:none;fill-rule:nonzero;fill:rgb(91.764706%,70.980392%,60%);fill-opacity:1;" d="M 30.074219 76.785156 C 30.074219 79.085938 28.207031 80.953125 25.90625 80.953125 C 23.605469 80.953125 21.738281 79.085938 21.738281 76.785156 C 21.738281 74.484375 23.605469 72.617188 25.90625 72.617188 C 28.207031 72.617188 30.074219 74.484375 30.074219 76.785156 Z M 30.074219 76.785156 "/>
<path style=" stroke:none;fill-rule:nonzero;fill:rgb(74.901961%,83.529412%,87.058824%);fill-opacity:1;" d="M 191.023438 128.949219 L 191.023438 141.464844 C 181.171875 163.0625 163.859375 180.535156 142.386719 190.601562 C 138.496094 192.421875 134.46875 194 130.320312 195.3125 C 125.65625 196.804688 120.84375 197.949219 115.90625 198.738281 C 115.886719 198.742188 115.863281 198.746094 115.839844 198.746094 L 115.839844 128.949219 C 115.839844 114.070312 127.296875 101.863281 141.878906 100.691406 C 142.644531 100.625 143.414062 100.597656 144.195312 100.597656 L 162.660156 100.597656 C 164.84375 100.597656 166.972656 100.835938 169.011719 101.304688 C 181.617188 104.1875 191.023438 115.472656 191.023438 128.949219 Z M 191.023438 128.949219 "/>
<path style=" stroke:none;fill-rule:nonzero;fill:rgb(86.666667%,90.980392%,92.941176%);fill-opacity:1;" d="M 191.023438 128.949219 L 191.023438 141.464844 C 181.171875 163.0625 163.859375 180.535156 142.386719 190.601562 C 138.496094 192.421875 134.46875 194 130.320312 195.3125 L 130.320312 128.949219 C 130.320312 113.289062 143.019531 100.597656 158.683594 100.597656 L 162.664062 100.597656 C 178.332031 100.597656 191.023438 113.289062 191.023438 128.949219 Z M 191.023438 128.949219 "/>
<path style=" stroke:none;fill-rule:nonzero;fill:rgb(82.745098%,64.313725%,53.72549%);fill-opacity:1;" d="M 125.675781 69.320312 C 125.675781 74.007812 122.257812 77.890625 117.777344 78.609375 C 117.285156 78.691406 116.78125 78.730469 116.269531 78.730469 C 111.070312 78.730469 106.859375 74.519531 106.859375 69.320312 C 106.859375 64.125 111.070312 59.914062 116.269531 59.914062 C 116.78125 59.914062 117.285156 59.953125 117.777344 60.035156 C 122.257812 60.757812 125.675781 64.640625 125.675781 69.320312 Z M 125.675781 69.320312 "/>
<path style=" stroke:none;fill-rule:nonzero;fill:rgb(96.862745%,30.980392%,30.980392%);fill-opacity:1;" d="M 161.042969 110.824219 L 153.433594 123.035156 L 145.820312 110.824219 "/>
<path style=" stroke:none;fill-rule:nonzero;fill:rgb(96.862745%,30.980392%,30.980392%);fill-opacity:1;" d="M 163.671875 157.527344 L 153.433594 170.449219 L 143.1875 157.527344 L 153.433594 119.859375 Z M 163.671875 157.527344 "/>
<path style=" stroke:none;fill-rule:nonzero;fill:rgb(74.901961%,55.686275%,45.882353%);fill-opacity:1;" d="M 125.675781 69.320312 C 125.675781 74.007812 122.257812 77.890625 117.777344 78.609375 C 116.964844 75.652344 116.527344 72.539062 116.527344 69.320312 C 116.527344 66.109375 116.964844 62.996094 117.777344 60.035156 C 122.257812 60.757812 125.675781 64.640625 125.675781 69.320312 Z M 125.675781 69.320312 "/>
<path style=" stroke:none;fill-rule:nonzero;fill:rgb(74.901961%,55.686275%,45.882353%);fill-opacity:1;" d="M 119.632812 69.320312 C 119.632812 71.179688 118.125 72.683594 116.269531 72.683594 C 114.410156 72.683594 112.90625 71.179688 112.90625 69.320312 C 112.90625 67.464844 114.410156 65.960938 116.269531 65.960938 C 118.125 65.960938 119.632812 67.464844 119.632812 69.320312 Z M 119.632812 69.320312 "/>
<path style=" stroke:none;fill-rule:nonzero;fill:rgb(74.901961%,83.529412%,87.058824%);fill-opacity:1;" d="M 153.429688 112.203125 L 140.664062 119.296875 L 136.78125 101.234375 L 144.710938 96.5625 "/>
<path style=" stroke:none;fill-rule:nonzero;fill:rgb(74.901961%,83.529412%,87.058824%);fill-opacity:1;" d="M 153.429688 112.203125 L 166.195312 119.296875 L 170.078125 101.234375 L 162.144531 96.5625 "/>
<path style=" stroke:none;fill-rule:nonzero;fill:rgb(82.745098%,64.313725%,53.72549%);fill-opacity:1;" d="M 181.183594 69.320312 C 181.183594 74.007812 184.605469 77.890625 189.082031 78.609375 C 189.574219 78.691406 190.078125 78.730469 190.589844 78.730469 C 195.789062 78.730469 200 74.519531 200 69.320312 C 200 64.125 195.789062 59.914062 190.589844 59.914062 C 190.078125 59.914062 189.574219 59.953125 189.082031 60.035156 C 184.605469 60.757812 181.183594 64.640625 181.183594 69.320312 Z M 181.183594 69.320312 "/>
<path style=" stroke:none;fill-rule:nonzero;fill:rgb(74.901961%,55.686275%,45.882353%);fill-opacity:1;" d="M 181.183594 69.320312 C 181.183594 74.007812 184.605469 77.890625 189.082031 78.609375 C 189.898438 75.652344 190.332031 72.539062 190.332031 69.320312 C 190.332031 66.109375 189.898438 62.996094 189.082031 60.035156 C 184.605469 60.757812 181.183594 64.640625 181.183594 69.320312 Z M 181.183594 69.320312 "/>
<path style=" stroke:none;fill-rule:nonzero;fill:rgb(74.901961%,55.686275%,45.882353%);fill-opacity:1;" d="M 193.953125 69.320312 C 193.953125 71.179688 192.449219 72.683594 190.589844 72.683594 C 188.734375 72.683594 187.226562 71.179688 187.226562 69.320312 C 187.226562 67.464844 188.734375 65.960938 190.589844 65.960938 C 192.449219 65.960938 193.953125 67.464844 193.953125 69.320312 Z M 193.953125 69.320312 "/>
<path style=" stroke:none;fill-rule:nonzero;fill:rgb(74.901961%,55.686275%,45.882353%);fill-opacity:1;" d="M 188.4375 64.320312 C 188.4375 81.742188 175.710938 96.191406 159.046875 98.875 C 157.222656 99.175781 155.34375 99.328125 153.429688 99.328125 C 134.097656 99.328125 118.425781 83.65625 118.425781 64.320312 C 118.425781 55.175781 121.601562 41.441406 127.347656 35.203125 C 133.742188 28.261719 143.242188 29.316406 153.429688 29.316406 C 155.34375 29.316406 157.21875 29.46875 159.046875 29.769531 C 175.710938 32.449219 188.4375 46.902344 188.4375 64.320312 Z M 188.4375 64.320312 "/>
<path style=" stroke:none;fill-rule:nonzero;fill:rgb(74.901961%,55.686275%,45.882353%);fill-opacity:1;" d="M 163.546875 89.671875 L 163.546875 102.085938 C 163.546875 106.632812 160.550781 110.476562 156.421875 111.75 C 155.476562 112.042969 154.472656 112.203125 153.429688 112.203125 C 147.84375 112.203125 143.3125 107.671875 143.3125 102.085938 L 143.3125 89.671875 Z M 163.546875 89.671875 "/>
<path style=" stroke:none;fill-rule:nonzero;fill:rgb(82.745098%,64.313725%,53.72549%);fill-opacity:1;" d="M 163.546875 101.300781 L 163.546875 102.085938 C 163.546875 106.632812 160.550781 110.476562 156.421875 111.75 C 152.699219 110.605469 149.898438 107.367188 149.378906 103.402344 C 150.054688 103.445312 150.734375 103.464844 151.417969 103.464844 C 153.332031 103.464844 155.210938 103.3125 157.039062 103.015625 C 159.289062 102.652344 161.464844 102.074219 163.546875 101.300781 Z M 163.546875 101.300781 "/>
<path style=" stroke:none;fill-rule:nonzero;fill:rgb(82.745098%,64.313725%,53.72549%);fill-opacity:1;" d="M 188.4375 64.320312 C 188.4375 81.742188 175.710938 96.191406 159.046875 98.875 C 142.386719 96.191406 129.660156 81.742188 129.660156 64.320312 C 129.660156 53.59375 134.488281 43.992188 142.085938 37.570312 C 146.824219 33.566406 152.648438 30.796875 159.046875 29.765625 C 174.582031 32.269531 186.699219 45 188.265625 60.832031 C 188.378906 61.980469 188.4375 63.144531 188.4375 64.320312 Z M 188.4375 64.320312 "/>
<path style=" stroke:none;fill-rule:nonzero;fill:rgb(74.901961%,55.686275%,45.882353%);fill-opacity:1;" d="M 153.433594 81.5625 C 150.5 81.5625 147.570312 80.828125 144.898438 79.359375 C 144.140625 78.945312 143.867188 78 144.28125 77.246094 C 144.695312 76.492188 145.644531 76.214844 146.398438 76.632812 C 150.800781 79.050781 156.0625 79.050781 160.464844 76.632812 C 161.21875 76.214844 162.164062 76.492188 162.578125 77.246094 C 162.996094 78 162.71875 78.945312 161.964844 79.359375 C 159.292969 80.828125 156.363281 81.5625 153.433594 81.5625 Z M 153.433594 81.5625 "/>
<path style=" stroke:none;fill-rule:nonzero;fill:rgb(23.921569%,25.490196%,34.901961%);fill-opacity:1;" d="M 145.976562 62.285156 C 145.976562 64.476562 144.199219 66.253906 142.003906 66.253906 C 139.8125 66.253906 138.035156 64.476562 138.035156 62.285156 C 138.035156 60.089844 139.8125 58.3125 142.003906 58.3125 C 144.199219 58.3125 145.976562 60.089844 145.976562 62.285156 Z M 145.976562 62.285156 "/>
<path style=" stroke:none;fill-rule:nonzero;fill:rgb(23.921569%,25.490196%,34.901961%);fill-opacity:1;" d="M 168.828125 62.285156 C 168.828125 64.476562 167.050781 66.253906 164.859375 66.253906 C 162.664062 66.253906 160.886719 64.476562 160.886719 62.285156 C 160.886719 60.089844 162.664062 58.3125 164.859375 58.3125 C 167.050781 58.3125 168.828125 60.089844 168.828125 62.285156 Z M 168.828125 62.285156 "/>
<path style=" stroke:none;fill-rule:nonzero;fill:rgb(100%,100%,100%);fill-opacity:1;" d="M 145.164062 61.582031 C 145.164062 62.523438 144.40625 63.285156 143.464844 63.285156 C 142.523438 63.285156 141.761719 62.523438 141.761719 61.582031 C 141.761719 60.644531 142.523438 59.882812 143.464844 59.882812 C 144.40625 59.882812 145.164062 60.644531 145.164062 61.582031 Z M 145.164062 61.582031 "/>
<path style=" stroke:none;fill-rule:nonzero;fill:rgb(100%,100%,100%);fill-opacity:1;" d="M 168.210938 61.582031 C 168.210938 62.523438 167.453125 63.285156 166.511719 63.285156 C 165.570312 63.285156 164.808594 62.523438 164.808594 61.582031 C 164.808594 60.644531 165.570312 59.882812 166.511719 59.882812 C 167.453125 59.882812 168.210938 60.644531 168.210938 61.582031 Z M 168.210938 61.582031 "/>
<path style=" stroke:none;fill-rule:nonzero;fill:rgb(74.901961%,55.686275%,45.882353%);fill-opacity:1;" d="M 157.402344 72.28125 L 149.460938 72.28125 C 148.515625 72.28125 147.746094 71.515625 147.746094 70.570312 C 147.746094 69.621094 148.515625 68.855469 149.460938 68.855469 L 157.402344 68.855469 C 158.347656 68.855469 159.117188 69.621094 159.117188 70.570312 C 159.113281 71.515625 158.347656 72.28125 157.402344 72.28125 Z M 157.402344 72.28125 "/>
<path style=" stroke:none;fill-rule:nonzero;fill:rgb(74.901961%,83.529412%,87.058824%);fill-opacity:1;" d="M 164.957031 128.019531 L 180.21875 128.019531 L 180.21875 132.6875 L 164.957031 132.6875 Z M 164.957031 128.019531 "/>
<path style=" stroke:none;fill-rule:nonzero;fill:rgb(16.470588%,18.431373%,30.980392%);fill-opacity:1;" d="M 151.382812 19.316406 C 161.988281 20.074219 170.5 28.640625 171.039062 39.421875 L 171.140625 41.449219 L 177.242188 41.449219 L 180.527344 63.296875 L 188.484375 60.832031 L 187.417969 39.425781 C 186.851562 28.097656 177.484375 19.21875 166.144531 19.261719 Z M 151.382812 19.316406 "/>
<path style=" stroke:none;fill-rule:nonzero;fill:rgb(23.921569%,25.490196%,34.901961%);fill-opacity:1;" d="M 186.742188 10.867188 C 195.1875 19.308594 195.1875 33 186.742188 41.445312 C 178.296875 49.890625 164.605469 49.890625 156.160156 41.445312 Z M 186.742188 10.867188 "/>
<path style=" stroke:none;fill-rule:nonzero;fill:rgb(23.921569%,25.490196%,34.901961%);fill-opacity:1;" d="M 156.160156 41.445312 L 129.625 41.445312 L 126.335938 63.296875 L 118.378906 60.832031 L 119.445312 39.421875 C 120.011719 28.097656 129.378906 19.21875 140.71875 19.257812 L 179.046875 19.40625 L 184.113281 28.523438 "/>
<path style=" stroke:none;fill-rule:nonzero;fill:rgb(16.470588%,18.431373%,30.980392%);fill-opacity:1;" d="M 155.480469 19.316406 C 144.875 20.074219 136.359375 28.640625 135.820312 39.421875 L 135.722656 41.449219 L 129.621094 41.449219 L 126.335938 63.296875 L 118.378906 60.832031 L 119.445312 39.425781 C 120.011719 28.097656 129.378906 19.21875 140.714844 19.261719 Z M 155.480469 19.316406 "/>
<path style=" stroke:none;fill-rule:nonzero;fill:rgb(23.921569%,25.490196%,34.901961%);fill-opacity:1;" d="M 142.386719 183.101562 L 142.386719 190.601562 C 129.519531 196.628906 115.15625 200 100 200 C 84.84375 200 70.476562 196.628906 57.609375 190.597656 L 57.609375 183.101562 C 57.609375 168.304688 67.652344 155.859375 81.296875 152.210938 C 81.796875 152.078125 82.296875 151.953125 82.808594 151.84375 C 84.164062 151.550781 85.554688 151.347656 86.96875 151.234375 C 87.832031 151.164062 88.703125 151.125 89.585938 151.125 L 110.40625 151.125 C 112.738281 151.125 115.003906 151.371094 117.191406 151.84375 C 117.320312 151.871094 117.445312 151.898438 117.566406 151.925781 C 117.933594 152.011719 118.300781 152.101562 118.664062 152.199219 C 118.679688 152.203125 118.679688 152.203125 118.695312 152.207031 C 122.292969 153.171875 125.644531 154.746094 128.621094 156.816406 C 136.941406 162.589844 142.386719 172.207031 142.386719 183.101562 Z M 142.386719 183.101562 "/>
<path style=" stroke:none;fill-rule:nonzero;fill:rgb(40%,72.941176%,92.941176%);fill-opacity:1;" d="M 118.769531 151.84375 L 118.695312 152.207031 L 108.496094 199.640625 C 107.964844 199.6875 107.4375 199.726562 106.90625 199.761719 C 106.160156 199.8125 105.40625 199.855469 104.652344 199.890625 C 103.109375 199.964844 101.558594 200 100 200 C 98.398438 200 96.8125 199.964844 95.234375 199.886719 C 94.519531 199.851562 93.804688 199.8125 93.089844 199.757812 C 92.554688 199.722656 92.023438 199.6875 91.492188 199.640625 L 81.296875 152.210938 L 81.222656 151.84375 Z M 118.769531 151.84375 "/>
<path style=" stroke:none;fill-rule:nonzero;fill:rgb(23.921569%,25.490196%,34.901961%);fill-opacity:1;" d="M 108.582031 162.664062 L 99.996094 176.429688 L 91.414062 162.664062 "/>
<path style=" stroke:none;fill-rule:nonzero;fill:rgb(23.921569%,25.490196%,34.901961%);fill-opacity:1;" d="M 106.90625 199.761719 C 106.160156 199.8125 105.40625 199.855469 104.652344 199.890625 C 103.109375 199.964844 101.558594 200 100 200 C 98.398438 200 96.8125 199.964844 95.234375 199.886719 C 94.519531 199.851562 93.804688 199.8125 93.089844 199.757812 L 100 172.847656 Z M 106.90625 199.761719 "/>
<path style=" stroke:none;fill-rule:nonzero;fill:rgb(16.862745%,63.137255%,81.176471%);fill-opacity:1;" d="M 99.996094 164.214844 L 85.597656 172.214844 L 81.21875 151.847656 L 90.164062 146.578125 "/>
<path style=" stroke:none;fill-rule:nonzero;fill:rgb(16.862745%,63.137255%,81.176471%);fill-opacity:1;" d="M 99.996094 164.214844 L 114.390625 172.214844 L 118.769531 151.847656 L 109.824219 146.578125 "/>
<path style=" stroke:none;fill-rule:nonzero;fill:rgb(16.470588%,18.431373%,30.980392%);fill-opacity:1;" d="M 119.316406 179.335938 L 123.882812 179.335938 L 115.90625 198.738281 C 112.214844 199.332031 108.460938 199.71875 104.652344 199.890625 L 118.664062 152.199219 L 118.769531 151.84375 L 128.621094 155.0625 Z M 119.316406 179.335938 "/>
<path style=" stroke:none;fill-rule:nonzero;fill:rgb(16.470588%,18.431373%,30.980392%);fill-opacity:1;" d="M 95.234375 199.886719 C 91.421875 199.710938 87.660156 199.316406 83.972656 198.71875 L 76.003906 179.335938 L 80.570312 179.335938 L 71.261719 155.0625 L 81.113281 151.84375 L 81.222656 152.199219 Z M 95.234375 199.886719 "/>
<path style=" stroke:none;fill-rule:nonzero;fill:rgb(91.764706%,70.980392%,60%);fill-opacity:1;" d="M 111.40625 138.808594 L 111.40625 152.808594 C 111.40625 157.9375 108.027344 162.269531 103.371094 163.707031 C 102.304688 164.039062 101.167969 164.214844 99.992188 164.214844 C 93.695312 164.214844 88.589844 159.109375 88.589844 152.808594 L 88.589844 138.808594 Z M 111.40625 138.808594 "/>
<path style=" stroke:none;fill-rule:nonzero;fill:rgb(96.470588%,79.215686%,68.235294%);fill-opacity:1;" d="M 111.40625 151.921875 L 111.40625 152.8125 C 111.40625 157.9375 108.027344 162.269531 103.371094 163.707031 C 99.167969 162.417969 96.011719 158.765625 95.429688 154.296875 C 96.191406 154.34375 96.957031 154.367188 97.726562 154.367188 C 99.886719 154.367188 102 154.195312 104.0625 153.859375 C 106.601562 153.449219 109.054688 152.792969 111.40625 151.921875 Z M 111.40625 151.921875 "/>
<path style=" stroke:none;fill-rule:nonzero;fill:rgb(96.470588%,79.215686%,68.235294%);fill-opacity:1;" d="M 68.703125 115.863281 C 68.703125 121.144531 64.84375 125.523438 59.789062 126.335938 C 59.238281 126.425781 58.671875 126.472656 58.089844 126.472656 C 52.230469 126.472656 47.480469 121.722656 47.480469 115.863281 C 47.480469 110.003906 52.230469 105.253906 58.089844 105.253906 C 58.671875 105.253906 59.238281 105.300781 59.789062 105.390625 C 64.84375 106.203125 68.703125 110.582031 68.703125 115.863281 Z M 68.703125 115.863281 "/>
<path style=" stroke:none;fill-rule:nonzero;fill:rgb(91.764706%,70.980392%,60%);fill-opacity:1;" d="M 68.703125 115.863281 C 68.703125 121.144531 64.84375 125.523438 59.789062 126.335938 C 58.871094 123 58.382812 119.488281 58.382812 115.863281 C 58.382812 112.238281 58.871094 108.726562 59.789062 105.390625 C 64.84375 106.203125 68.703125 110.582031 68.703125 115.863281 Z M 68.703125 115.863281 "/>
<path style=" stroke:none;fill-rule:nonzero;fill:rgb(91.764706%,70.980392%,60%);fill-opacity:1;" d="M 61.882812 115.863281 C 61.882812 117.957031 60.183594 119.65625 58.089844 119.65625 C 55.996094 119.65625 54.300781 117.957031 54.300781 115.863281 C 54.300781 113.769531 55.996094 112.070312 58.089844 112.070312 C 60.183594 112.070312 61.882812 113.769531 61.882812 115.863281 Z M 61.882812 115.863281 "/>
<path style=" stroke:none;fill-rule:nonzero;fill:rgb(96.470588%,79.215686%,68.235294%);fill-opacity:1;" d="M 131.292969 115.863281 C 131.292969 121.144531 135.148438 125.523438 140.203125 126.335938 C 140.753906 126.425781 141.324219 126.472656 141.902344 126.472656 C 147.761719 126.472656 152.511719 121.722656 152.511719 115.863281 C 152.511719 110.003906 147.761719 105.253906 141.902344 105.253906 C 141.324219 105.253906 140.753906 105.300781 140.203125 105.390625 C 135.148438 106.203125 131.292969 110.582031 131.292969 115.863281 Z M 131.292969 115.863281 "/>
<path style=" stroke:none;fill-rule:nonzero;fill:rgb(91.764706%,70.980392%,60%);fill-opacity:1;" d="M 131.292969 115.863281 C 131.292969 121.144531 135.148438 125.523438 140.203125 126.335938 C 141.121094 123 141.609375 119.488281 141.609375 115.863281 C 141.609375 112.238281 141.121094 108.726562 140.203125 105.390625 C 135.148438 106.203125 131.292969 110.582031 131.292969 115.863281 Z M 131.292969 115.863281 "/>
<path style=" stroke:none;fill-rule:nonzero;fill:rgb(91.764706%,70.980392%,60%);fill-opacity:1;" d="M 139.472656 95.195312 L 139.472656 110.226562 C 139.472656 129.867188 125.121094 146.164062 106.332031 149.1875 C 106.269531 149.199219 106.203125 149.210938 106.136719 149.21875 C 104.140625 149.539062 102.089844 149.699219 99.996094 149.699219 C 78.195312 149.699219 60.523438 132.023438 60.523438 110.226562 L 60.523438 95.195312 C 60.523438 90.605469 61.308594 86.191406 62.753906 82.09375 C 68.152344 66.730469 82.789062 55.71875 99.996094 55.71875 L 100 55.71875 C 102.089844 55.71875 104.144531 55.878906 106.144531 56.195312 C 125.027344 59.144531 139.472656 75.484375 139.472656 95.195312 Z M 139.472656 95.195312 "/>
<path style=" stroke:none;fill-rule:nonzero;fill:rgb(91.764706%,70.980392%,60%);fill-opacity:1;" d="M 145.691406 115.863281 C 145.691406 117.957031 143.996094 119.65625 141.902344 119.65625 C 139.808594 119.65625 138.109375 117.957031 138.109375 115.863281 C 138.109375 113.769531 139.808594 112.070312 141.902344 112.070312 C 143.996094 112.070312 145.691406 113.769531 145.691406 115.863281 Z M 145.691406 115.863281 "/>
<path style=" stroke:none;fill-rule:nonzero;fill:rgb(96.470588%,79.215686%,68.235294%);fill-opacity:1;" d="M 139.46875 95.195312 L 139.46875 110.226562 C 139.46875 129.867188 125.121094 146.164062 106.332031 149.1875 C 106.265625 149.199219 106.203125 149.210938 106.136719 149.21875 C 87.257812 146.269531 72.816406 129.929688 72.816406 110.226562 L 72.816406 95.195312 C 72.816406 75.484375 87.261719 59.144531 106.144531 56.195312 C 125.027344 59.144531 139.46875 75.484375 139.46875 95.195312 Z M 139.46875 95.195312 "/>
<path style=" stroke:none;fill-rule:nonzero;fill:rgb(23.921569%,25.490196%,34.901961%);fill-opacity:1;" d="M 91.589844 107.925781 C 91.589844 110.398438 89.585938 112.402344 87.113281 112.402344 C 84.640625 112.402344 82.632812 110.398438 82.632812 107.925781 C 82.632812 105.453125 84.640625 103.449219 87.113281 103.449219 C 89.585938 103.449219 91.589844 105.453125 91.589844 107.925781 Z M 91.589844 107.925781 "/>
<path style=" stroke:none;fill-rule:nonzero;fill:rgb(23.921569%,25.490196%,34.901961%);fill-opacity:1;" d="M 117.359375 107.925781 C 117.359375 110.398438 115.355469 112.402344 112.882812 112.402344 C 110.40625 112.402344 108.402344 110.398438 108.402344 107.925781 C 108.402344 105.453125 110.40625 103.449219 112.882812 103.449219 C 115.355469 103.449219 117.359375 105.453125 117.359375 107.925781 Z M 117.359375 107.925781 "/>
<path style=" stroke:none;fill-rule:nonzero;fill:rgb(100%,100%,100%);fill-opacity:1;" d="M 90.675781 107.136719 C 90.675781 108.195312 89.816406 109.054688 88.757812 109.054688 C 87.699219 109.054688 86.839844 108.195312 86.839844 107.136719 C 86.839844 106.074219 87.699219 105.21875 88.757812 105.21875 C 89.816406 105.21875 90.675781 106.074219 90.675781 107.136719 Z M 90.675781 107.136719 "/>
<path style=" stroke:none;fill-rule:nonzero;fill:rgb(100%,100%,100%);fill-opacity:1;" d="M 116.664062 107.136719 C 116.664062 108.195312 115.804688 109.054688 114.746094 109.054688 C 113.6875 109.054688 112.828125 108.195312 112.828125 107.136719 C 112.828125 106.074219 113.6875 105.21875 114.746094 105.21875 C 115.804688 105.21875 116.664062 106.074219 116.664062 107.136719 Z M 116.664062 107.136719 "/>
<path style=" stroke:none;fill-rule:nonzero;fill:rgb(91.764706%,70.980392%,60%);fill-opacity:1;" d="M 104.476562 117.445312 L 95.519531 117.445312 C 94.453125 117.445312 93.585938 116.582031 93.585938 115.511719 C 93.585938 114.445312 94.453125 113.582031 95.519531 113.582031 L 104.476562 113.582031 C 105.542969 113.582031 106.40625 114.445312 106.40625 115.511719 C 106.40625 116.582031 105.539062 117.445312 104.476562 117.445312 Z M 104.476562 117.445312 "/>
<path style=" stroke:none;fill-rule:nonzero;fill:rgb(91.764706%,70.980392%,60%);fill-opacity:1;" d="M 99.996094 129.667969 C 96.691406 129.667969 93.386719 128.835938 90.375 127.179688 C 89.523438 126.714844 89.210938 125.644531 89.679688 124.796875 C 90.148438 123.945312 91.214844 123.636719 92.066406 124.101562 C 97.03125 126.835938 102.960938 126.835938 107.929688 124.101562 C 108.777344 123.636719 109.847656 123.945312 110.3125 124.796875 C 110.78125 125.644531 110.46875 126.714844 109.621094 127.179688 C 106.605469 128.835938 103.300781 129.667969 99.996094 129.667969 Z M 99.996094 129.667969 "/>
<path style=" stroke:none;fill-rule:nonzero;fill:rgb(16.470588%,18.431373%,30.980392%);fill-opacity:1;" d="M 139.472656 81.550781 L 139.472656 96.949219 L 132.125 96.949219 L 132.125 84.890625 L 79.089844 75.035156 L 67.871094 72.949219 L 67.871094 96.949219 L 60.523438 96.949219 L 60.523438 81.550781 C 60.523438 63.996094 74.75 49.769531 92.300781 49.769531 L 107.695312 49.769531 C 108.113281 49.769531 108.53125 49.777344 108.949219 49.796875 C 125.914062 50.453125 139.472656 64.417969 139.472656 81.550781 Z M 139.472656 81.550781 "/>
<path style=" stroke:none;fill-rule:nonzero;fill:rgb(23.921569%,25.490196%,34.901961%);fill-opacity:1;" d="M 139.472656 81.550781 L 139.472656 96.949219 L 132.125 96.949219 L 132.125 84.890625 L 79.089844 75.035156 C 82.011719 61 94.191406 50.367188 108.949219 49.796875 C 125.914062 50.453125 139.472656 64.417969 139.472656 81.550781 Z M 139.472656 81.550781 "/>
</g>
</svg>
