<?xml version="1.0" encoding="UTF-8"?>
<svg xmlns="http://www.w3.org/2000/svg" xmlns:xlink="http://www.w3.org/1999/xlink" width="20pt" height="20pt" viewBox="0 0 20 20" version="1.1">
<g id="surface1">
<path style=" stroke:none;fill-rule:nonzero;fill:rgb(30.196078%,83.137255%,96.862745%);fill-opacity:1;" d="M 10.210938 13.304688 C 10.132812 13.292969 10.058594 13.28125 9.980469 13.269531 L 5.460938 13.269531 C 3.761719 13.488281 1.695312 14.554688 1.644531 19.800781 C 1.644531 19.910156 1.730469 20 1.839844 20 L 13.601562 20 C 13.710938 20 13.800781 19.910156 13.800781 19.800781 C 13.75 14.789062 11.863281 13.589844 10.210938 13.304688 Z M 10.210938 13.304688 "/>
<path style=" stroke:none;fill-rule:nonzero;fill:rgb(0%,76.078431%,95.294118%);fill-opacity:1;" d="M 13.800781 19.800781 C 13.800781 19.910156 13.710938 20 13.601562 20 L 12.820312 20 C 12.929688 20 13.019531 19.910156 13.019531 19.800781 C 12.976562 15.570312 11.625 13.90625 10.210938 13.304688 C 11.863281 13.589844 13.75 14.789062 13.800781 19.800781 Z M 13.800781 19.800781 "/>
<path style=" stroke:none;fill-rule:nonzero;fill:rgb(85.098039%,94.117647%,95.686275%);fill-opacity:1;" d="M 9.980469 13.269531 C 9.914062 14.457031 8.929688 15.402344 7.722656 15.402344 C 6.515625 15.402344 5.527344 14.457031 5.460938 13.269531 C 5.886719 13.214844 6.292969 13.214844 6.632812 13.214844 L 8.808594 13.214844 C 9.152344 13.214844 9.554688 13.214844 9.980469 13.269531 Z M 9.980469 13.269531 "/>
<path style=" stroke:none;fill-rule:nonzero;fill:rgb(33.72549%,47.058824%,54.509804%);fill-opacity:1;" d="M 13.144531 11.675781 L 2.292969 11.675781 C 2.160156 11.675781 2.066406 11.542969 2.109375 11.417969 C 2.648438 9.75 2.882812 6.910156 2.882812 6.910156 L 12.550781 6.910156 C 12.550781 6.910156 12.789062 9.75 13.328125 11.417969 C 13.371094 11.542969 13.277344 11.675781 13.144531 11.675781 Z M 13.144531 11.675781 "/>
<path style=" stroke:none;fill-rule:nonzero;fill:rgb(25.490196%,36.862745%,43.529412%);fill-opacity:1;" d="M 13.144531 11.675781 L 7.722656 11.675781 L 7.722656 6.910156 L 12.550781 6.910156 C 12.550781 6.910156 12.789062 9.75 13.328125 11.417969 C 13.371094 11.542969 13.277344 11.675781 13.144531 11.675781 Z M 13.144531 11.675781 "/>
<path style=" stroke:none;fill-rule:nonzero;fill:rgb(33.72549%,47.058824%,54.509804%);fill-opacity:1;" d="M 2.804688 5.917969 L 3.390625 6.550781 L 9.714844 5.832031 L 9.863281 1.453125 C 9.175781 -0.351562 1.625 -1.867188 2.804688 5.917969 Z M 2.804688 5.917969 "/>
<path style=" stroke:none;fill-rule:nonzero;fill:rgb(25.490196%,36.862745%,43.529412%);fill-opacity:1;" d="M 12.449219 5.808594 C 14.414062 2.628906 8.964844 -1.519531 9.066406 3.898438 L 9.066406 6.441406 L 11.882812 6.441406 Z M 12.449219 5.808594 "/>
<path style=" stroke:none;fill-rule:nonzero;fill:rgb(98.039216%,71.372549%,51.764706%);fill-opacity:1;" d="M 10.902344 7.453125 L 11.972656 7.453125 C 12.464844 7.453125 12.863281 7.050781 12.863281 6.558594 C 12.863281 6.066406 12.464844 5.667969 11.972656 5.667969 L 11.210938 5.667969 Z M 10.902344 7.453125 "/>
<path style=" stroke:none;fill-rule:nonzero;fill:rgb(98.039216%,71.372549%,51.764706%);fill-opacity:1;" d="M 4.492188 7.453125 L 3.425781 7.453125 C 2.933594 7.453125 2.53125 7.050781 2.53125 6.558594 C 2.53125 6.066406 2.933594 5.667969 3.425781 5.667969 L 4.183594 5.667969 Z M 4.492188 7.453125 "/>
<path style=" stroke:none;fill-rule:nonzero;fill:rgb(98.039216%,71.372549%,51.764706%);fill-opacity:1;" d="M 8.808594 11.976562 C 8.71875 12.222656 8.671875 12.855469 8.808594 13.214844 C 8.808594 13.816406 8.324219 14.304688 7.722656 14.304688 C 7.121094 14.304688 6.632812 13.816406 6.632812 13.214844 C 6.773438 12.855469 6.726562 12.222656 6.632812 11.976562 Z M 8.808594 11.976562 "/>
<path style=" stroke:none;fill-rule:nonzero;fill:rgb(99.215686%,85.098039%,70.588235%);fill-opacity:1;" d="M 11.351562 8.683594 C 11.351562 9.546875 10.617188 10.578125 9.167969 11.75 C 9.085938 11.816406 9 11.875 8.910156 11.929688 C 8.550781 12.144531 8.132812 12.261719 7.714844 12.257812 C 7.191406 12.261719 6.679688 12.082031 6.277344 11.75 C 4.824219 10.578125 4.089844 9.546875 4.089844 8.683594 C 4.089844 8.589844 4.09375 8.5 4.101562 8.410156 C 4.140625 8.03125 4.128906 6.308594 4.128906 5.199219 C 4.117188 4.820312 4.328125 4.472656 4.667969 4.308594 C 5.40625 3.980469 6.5625 3.816406 7.722656 3.816406 C 8.554688 3.816406 9.382812 3.898438 10.058594 4.070312 C 10.324219 4.136719 10.566406 4.214844 10.777344 4.308594 C 11.113281 4.472656 11.324219 4.820312 11.316406 5.199219 C 11.316406 6.308594 11.304688 8.03125 11.339844 8.40625 C 11.347656 8.5 11.351562 8.589844 11.351562 8.683594 Z M 11.351562 8.683594 "/>
<path style=" stroke:none;fill-rule:nonzero;fill:rgb(97.647059%,75.686275%,60.784314%);fill-opacity:1;" d="M 11.351562 8.683594 C 11.351562 9.546875 10.617188 10.578125 9.167969 11.75 C 9.085938 11.816406 9 11.875 8.910156 11.929688 C 10.015625 10.941406 10.570312 10.058594 10.570312 9.308594 C 10.570312 9.214844 10.566406 9.125 10.558594 9.03125 C 10.523438 8.65625 10.535156 6.3125 10.535156 5.199219 L 10.535156 4.925781 C 10.542969 4.574219 10.359375 4.246094 10.058594 4.070312 C 10.324219 4.136719 10.566406 4.214844 10.777344 4.308594 C 11.113281 4.472656 11.324219 4.820312 11.316406 5.199219 C 11.316406 6.3125 11.304688 8.03125 11.339844 8.410156 C 11.347656 8.5 11.351562 8.589844 11.351562 8.683594 Z M 11.351562 8.683594 "/>
<path style=" stroke:none;fill-rule:nonzero;fill:rgb(98.039216%,71.372549%,51.764706%);fill-opacity:1;" d="M 7.1875 8.277344 C 7.324219 8.367188 7.503906 8.328125 7.59375 8.191406 C 7.621094 8.148438 7.667969 8.121094 7.722656 8.121094 C 7.773438 8.121094 7.824219 8.148438 7.851562 8.191406 C 7.90625 8.277344 8 8.324219 8.097656 8.324219 C 8.152344 8.324219 8.207031 8.3125 8.257812 8.277344 C 8.390625 8.191406 8.429688 8.007812 8.34375 7.875 C 8.207031 7.660156 7.972656 7.535156 7.722656 7.535156 C 7.46875 7.535156 7.238281 7.660156 7.101562 7.875 C 7.011719 8.007812 7.050781 8.191406 7.1875 8.277344 Z M 7.1875 8.277344 "/>
<path style=" stroke:none;fill-rule:nonzero;fill:rgb(98.039216%,71.372549%,51.764706%);fill-opacity:1;" d="M 8.523438 9.300781 L 6.90625 9.300781 C 6.742188 9.300781 6.613281 9.433594 6.613281 9.59375 C 6.613281 9.757812 6.742188 9.886719 6.90625 9.886719 L 8.523438 9.886719 C 8.683594 9.886719 8.816406 9.757812 8.816406 9.59375 C 8.816406 9.433594 8.683594 9.300781 8.523438 9.300781 Z M 8.523438 9.300781 "/>
<path style=" stroke:none;fill-rule:nonzero;fill:rgb(25.490196%,36.862745%,43.529412%);fill-opacity:1;" d="M 15.269531 11.476562 C 14.269531 11.476562 13.453125 12.289062 13.453125 13.292969 L 13.453125 15.226562 C 13.453125 15.386719 13.585938 15.519531 13.746094 15.519531 C 13.910156 15.519531 14.039062 15.386719 14.039062 15.226562 L 14.039062 13.292969 C 14.039062 12.613281 14.59375 12.0625 15.269531 12.0625 C 15.949219 12.0625 16.5 12.613281 16.5 13.292969 L 16.5 15.226562 C 16.5 15.386719 16.632812 15.519531 16.792969 15.519531 C 16.957031 15.519531 17.085938 15.386719 17.085938 15.226562 L 17.085938 13.292969 C 17.085938 12.289062 16.273438 11.476562 15.269531 11.476562 Z M 15.269531 11.476562 "/>
<path style=" stroke:none;fill-rule:nonzero;fill:rgb(56.470588%,67.058824%,74.117647%);fill-opacity:1;" d="M 18.355469 15.839844 L 18.355469 19.089844 C 18.355469 19.59375 17.949219 20 17.449219 20 L 13.09375 20 C 12.59375 20 12.183594 19.59375 12.183594 19.089844 L 12.183594 15.839844 C 12.183594 15.339844 12.59375 14.933594 13.09375 14.933594 L 17.449219 14.933594 C 17.949219 14.933594 18.355469 15.339844 18.355469 15.839844 Z M 18.355469 15.839844 "/>
<path style=" stroke:none;fill-rule:nonzero;fill:rgb(33.72549%,47.058824%,54.509804%);fill-opacity:1;" d="M 18.355469 15.839844 L 18.355469 19.089844 C 18.355469 19.59375 17.949219 20 17.449219 20 L 16.667969 20 C 17.167969 20 17.574219 19.59375 17.574219 19.089844 L 17.574219 15.839844 C 17.574219 15.339844 17.167969 14.933594 16.667969 14.933594 L 17.449219 14.933594 C 17.949219 14.933594 18.355469 15.339844 18.355469 15.839844 Z M 18.355469 15.839844 "/>
<path style=" stroke:none;fill-rule:nonzero;fill:rgb(25.490196%,36.862745%,43.529412%);fill-opacity:1;" d="M 15.269531 16.535156 C 15.109375 16.535156 14.976562 16.667969 14.976562 16.828125 L 14.976562 18.105469 C 14.976562 18.265625 15.109375 18.398438 15.269531 18.398438 C 15.433594 18.398438 15.5625 18.265625 15.5625 18.105469 L 15.5625 16.828125 C 15.5625 16.667969 15.433594 16.535156 15.269531 16.535156 Z M 15.269531 16.535156 "/>
<path style=" stroke:none;fill-rule:nonzero;fill:rgb(0%,76.078431%,95.294118%);fill-opacity:1;" d="M 4.722656 18.398438 C 4.667969 18.394531 4.5625 18.410156 4.457031 18.511719 C 4.34375 18.625 4.1875 18.871094 4.1875 19.707031 C 4.1875 19.867188 4.320312 20 4.480469 20 C 4.644531 20 4.773438 19.867188 4.773438 19.707031 C 4.773438 19.199219 4.835938 19.003906 4.863281 18.945312 C 4.949219 18.894531 5.007812 18.804688 5.011719 18.695312 C 5.011719 18.535156 4.882812 18.402344 4.722656 18.398438 Z M 4.722656 18.398438 "/>
<path style=" stroke:none;fill-rule:nonzero;fill:rgb(0%,76.078431%,95.294118%);fill-opacity:1;" d="M 10.988281 18.511719 C 10.882812 18.410156 10.773438 18.398438 10.722656 18.398438 C 10.558594 18.402344 10.429688 18.535156 10.433594 18.695312 C 10.433594 18.804688 10.496094 18.898438 10.585938 18.945312 C 10.605469 19 10.667969 19.199219 10.667969 19.707031 C 10.667969 19.867188 10.800781 20 10.960938 20 C 11.125 20 11.253906 19.867188 11.253906 19.707031 C 11.253906 18.871094 11.101562 18.625 10.988281 18.511719 Z M 10.988281 18.511719 "/>
</g>
</svg>
