<?xml version="1.0" encoding="UTF-8"?>
<svg xmlns="http://www.w3.org/2000/svg" xmlns:xlink="http://www.w3.org/1999/xlink" width="20pt" height="20pt" viewBox="0 0 20 20" version="1.1">
<g id="surface1">
<path style=" stroke:none;fill-rule:nonzero;fill:rgb(75.294118%,22.745098%,16.862745%);fill-opacity:1;" d="M 12.738281 11.035156 L 9.308594 16.019531 C 5.46875 17.808594 1.035156 14.929688 1.035156 10.566406 C 1.035156 6.675781 5.589844 1.316406 6.667969 0.101562 C 6.726562 0.0390625 6.808594 0 6.898438 0 C 6.984375 0 7.066406 0.0390625 7.125 0.101562 C 9.421875 2.6875 13.046875 7.570312 12.738281 11.035156 Z M 12.738281 11.035156 "/>
<path style=" stroke:none;fill-rule:nonzero;fill:rgb(90.196078%,29.803922%,23.529412%);fill-opacity:1;" d="M 12.738281 11.035156 L 12.066406 12.015625 C 8.664062 14.066406 4.367188 13.90625 1.125 11.613281 C 1.066406 11.265625 1.035156 10.917969 1.035156 10.566406 C 1.035156 6.675781 5.589844 1.316406 6.667969 0.101562 C 6.726562 0.0390625 6.808594 0 6.898438 0 C 6.984375 0 7.066406 0.0390625 7.125 0.101562 C 9.421875 2.6875 13.046875 7.570312 12.738281 11.035156 Z M 12.738281 11.035156 "/>
<path style=" stroke:none;fill-rule:nonzero;fill:rgb(98.431373%,48.235294%,46.27451%);fill-opacity:1;" d="M 4.539062 14.828125 C 4.472656 14.828125 4.410156 14.808594 4.355469 14.773438 C 3.886719 14.476562 3.472656 14.097656 3.128906 13.660156 C 3.050781 13.5625 3.03125 13.433594 3.078125 13.316406 C 3.125 13.199219 3.226562 13.117188 3.351562 13.101562 C 3.476562 13.085938 3.597656 13.136719 3.671875 13.234375 C 3.96875 13.613281 4.324219 13.933594 4.722656 14.191406 C 4.851562 14.273438 4.914062 14.433594 4.871094 14.578125 C 4.828125 14.726562 4.691406 14.828125 4.539062 14.828125 Z M 4.539062 14.828125 "/>
<path style=" stroke:none;fill-rule:nonzero;fill:rgb(98.431373%,48.235294%,46.27451%);fill-opacity:1;" d="M 2.421875 10.691406 C 2.324219 10.691406 2.234375 10.652344 2.167969 10.582031 C 2.105469 10.511719 2.070312 10.417969 2.078125 10.324219 C 2.199219 8.339844 3.898438 5.171875 6.628906 1.851562 C 6.753906 1.710938 6.964844 1.691406 7.109375 1.808594 C 7.253906 1.929688 7.277344 2.140625 7.164062 2.289062 C 4.523438 5.5 2.878906 8.519531 2.765625 10.367188 C 2.753906 10.546875 2.601562 10.6875 2.421875 10.691406 Z M 2.421875 10.691406 "/>
<path style=" stroke:none;fill-rule:nonzero;fill:rgb(94.117647%,76.862745%,9.803922%);fill-opacity:1;" d="M 10.34375 11.035156 L 17.929688 11.035156 C 18.503906 11.035156 18.964844 11.496094 18.964844 12.070312 L 18.964844 18.964844 C 18.964844 19.535156 18.503906 20 17.929688 20 L 10.34375 20 C 9.773438 20 9.308594 19.535156 9.308594 18.964844 L 9.308594 12.070312 C 9.308594 11.496094 9.773438 11.035156 10.34375 11.035156 Z M 10.34375 11.035156 "/>
<path style=" stroke:none;fill-rule:nonzero;fill:rgb(98.431373%,48.235294%,46.27451%);fill-opacity:1;" d="M 3.101562 12.070312 C 3.101562 12.257812 2.949219 12.414062 2.757812 12.414062 C 2.566406 12.414062 2.414062 12.257812 2.414062 12.070312 C 2.414062 11.878906 2.566406 11.722656 2.757812 11.722656 C 2.949219 11.722656 3.101562 11.878906 3.101562 12.070312 Z M 3.101562 12.070312 "/>
<path style=" stroke:none;fill-rule:nonzero;fill:rgb(92.54902%,94.117647%,94.509804%);fill-opacity:1;" d="M 16.898438 18.621094 C 16.761719 18.621094 16.640625 18.542969 16.585938 18.421875 L 14.136719 13.222656 L 11.691406 18.421875 C 11.640625 18.535156 11.53125 18.609375 11.40625 18.621094 C 11.285156 18.628906 11.167969 18.574219 11.097656 18.472656 C 11.027344 18.371094 11.015625 18.242188 11.066406 18.128906 L 13.824219 12.265625 C 13.882812 12.144531 14.003906 12.070312 14.136719 12.070312 C 14.273438 12.070312 14.394531 12.144531 14.449219 12.265625 L 17.207031 18.128906 C 17.257812 18.234375 17.25 18.359375 17.1875 18.460938 C 17.125 18.558594 17.015625 18.621094 16.898438 18.621094 Z M 16.898438 18.621094 "/>
<path style=" stroke:none;fill-rule:nonzero;fill:rgb(92.54902%,94.117647%,94.509804%);fill-opacity:1;" d="M 15.761719 16.207031 L 12.515625 16.207031 C 12.324219 16.207031 12.167969 16.050781 12.167969 15.863281 C 12.167969 15.671875 12.324219 15.515625 12.515625 15.515625 L 15.761719 15.515625 C 15.953125 15.515625 16.105469 15.671875 16.105469 15.863281 C 16.105469 16.050781 15.953125 16.207031 15.761719 16.207031 Z M 15.761719 16.207031 "/>
</g>
</svg>
