<?xml version="1.0" encoding="UTF-8"?>
<svg xmlns="http://www.w3.org/2000/svg" xmlns:xlink="http://www.w3.org/1999/xlink" width="20pt" height="20pt" viewBox="0 0 20 20" version="1.1">
<g id="surface1">
<path style=" stroke:none;fill-rule:nonzero;fill:rgb(0%,66.666667%,55.686275%);fill-opacity:1;" d="M 20 20 L 0 20 L 0 7.042969 L 20 7.042969 Z M 20 20 "/>
<path style=" stroke:none;fill-rule:nonzero;fill:rgb(0%,51.764706%,45.882353%);fill-opacity:1;" d="M 20 20 L 10 20 L 10 7.042969 L 20 7.042969 Z M 20 20 "/>
<path style=" stroke:none;fill-rule:nonzero;fill:rgb(69.019608%,93.333333%,68.235294%);fill-opacity:1;" d="M 1.171875 8.214844 L 18.828125 8.214844 L 18.828125 18.828125 L 1.171875 18.828125 Z M 1.171875 8.214844 "/>
<path style=" stroke:none;fill-rule:nonzero;fill:rgb(0%,86.27451%,48.235294%);fill-opacity:1;" d="M 10 8.214844 L 18.828125 8.214844 L 18.828125 18.828125 L 10 18.828125 Z M 10 8.214844 "/>
<path style=" stroke:none;fill-rule:nonzero;fill:rgb(90.588235%,94.901961%,100%);fill-opacity:1;" d="M 18.828125 12.933594 L 16.234375 12.933594 L 16.234375 8.214844 L 15.0625 8.214844 L 15.0625 12.933594 L 10.320312 12.933594 L 8.703125 10.402344 L 8.703125 8.214844 L 7.53125 8.214844 L 7.53125 9.988281 L 4.9375 9.988281 L 4.9375 8.214844 L 3.765625 8.214844 L 3.765625 9.988281 L 1.171875 9.988281 L 1.171875 11.160156 L 3.765625 11.160156 L 3.765625 18.828125 L 4.9375 18.828125 L 4.9375 17.027344 L 9.414062 17.027344 L 9.414062 18.828125 L 10.585938 18.828125 L 10.585938 17.027344 L 15.0625 17.027344 L 15.0625 18.828125 L 16.234375 18.828125 L 16.234375 14.105469 L 18.828125 14.105469 Z M 4.9375 15.855469 L 4.9375 11.160156 L 7.796875 11.160156 L 9.414062 13.691406 L 9.414062 15.855469 Z M 15.0625 15.855469 L 10.585938 15.855469 L 10.585938 14.105469 L 15.0625 14.105469 Z M 15.0625 15.855469 "/>
<path style=" stroke:none;fill-rule:nonzero;fill:rgb(81.568627%,90.980392%,100%);fill-opacity:1;" d="M 16.234375 12.933594 L 16.234375 8.214844 L 15.0625 8.214844 L 15.0625 12.933594 L 10.320312 12.933594 L 10 12.433594 L 10 18.828125 L 10.585938 18.828125 L 10.585938 17.027344 L 15.0625 17.027344 L 15.0625 18.828125 L 16.234375 18.828125 L 16.234375 14.105469 L 18.828125 14.105469 L 18.828125 12.933594 Z M 15.0625 15.855469 L 10.585938 15.855469 L 10.585938 14.105469 L 15.0625 14.105469 Z M 15.0625 15.855469 "/>
<path style=" stroke:none;fill-rule:nonzero;fill:rgb(100%,28.627451%,28.627451%);fill-opacity:1;" d="M 15.761719 7.804688 L 12.527344 11.035156 L 9.292969 7.804688 C 8.4375 6.945312 7.953125 5.785156 7.953125 4.570312 C 7.953125 2.046875 10 0 12.527344 0 C 15.054688 0 17.101562 2.046875 17.101562 4.570312 C 17.101562 5.785156 16.617188 6.945312 15.761719 7.804688 Z M 15.761719 7.804688 "/>
<path style=" stroke:none;fill-rule:nonzero;fill:rgb(100%,0%,11.764706%);fill-opacity:1;" d="M 12.527344 0 L 12.527344 11.035156 L 15.761719 7.804688 C 16.617188 6.945312 17.101562 5.785156 17.101562 4.570312 C 17.101562 2.046875 15.054688 0 12.527344 0 Z M 12.527344 0 "/>
<path style=" stroke:none;fill-rule:nonzero;fill:rgb(95.294118%,83.921569%,68.235294%);fill-opacity:1;" d="M 14.476562 4.570312 C 14.476562 5.648438 13.605469 6.523438 12.527344 6.523438 C 11.449219 6.523438 10.578125 5.648438 10.578125 4.570312 C 10.578125 3.492188 11.449219 2.621094 12.527344 2.621094 C 13.605469 2.621094 14.476562 3.492188 14.476562 4.570312 Z M 14.476562 4.570312 "/>
<path style=" stroke:none;fill-rule:nonzero;fill:rgb(100%,76.470588%,45.098039%);fill-opacity:1;" d="M 12.527344 2.621094 L 12.527344 6.523438 C 13.601562 6.523438 14.476562 5.648438 14.476562 4.570312 C 14.476562 3.496094 13.601562 2.621094 12.527344 2.621094 Z M 12.527344 2.621094 "/>
</g>
</svg>
