<?xml version="1.0" encoding="UTF-8"?>
<svg xmlns="http://www.w3.org/2000/svg" xmlns:xlink="http://www.w3.org/1999/xlink" width="20pt" height="20pt" viewBox="0 0 20 20" version="1.1">
<g id="surface1">
<path style=" stroke:none;fill-rule:nonzero;fill:rgb(11.764706%,53.333333%,89.803922%);fill-opacity:1;" d="M 18.75 16.875 L 1.25 16.875 C 0.558594 16.875 0 16.316406 0 15.625 L 0 4.375 C 0 3.683594 0.558594 3.125 1.25 3.125 L 18.75 3.125 C 19.441406 3.125 20 3.683594 20 4.375 L 20 15.625 C 20 16.316406 19.441406 16.875 18.75 16.875 Z M 18.75 16.875 "/>
<path style=" stroke:none;fill-rule:nonzero;fill:rgb(12.941176%,58.823529%,95.294118%);fill-opacity:1;" d="M 18.75 16.875 L 1.25 16.875 C 0.546875 16.875 0 16.328125 0 15.625 C 0 15.425781 0.09375 15.238281 0.253906 15.121094 L 9.628906 8.871094 C 9.738281 8.789062 9.871094 8.75 10 8.75 C 10.128906 8.75 10.261719 8.789062 10.371094 8.871094 L 19.746094 15.121094 C 19.90625 15.238281 20 15.425781 20 15.625 C 20 16.328125 19.453125 16.875 18.75 16.875 Z M 18.75 16.875 "/>
<path style=" stroke:none;fill-rule:nonzero;fill:rgb(39.215686%,70.980392%,96.470588%);fill-opacity:1;" d="M 18.75 3.125 L 1.25 3.125 C 0.546875 3.125 0 3.671875 0 4.375 C 0 4.574219 0.09375 4.761719 0.253906 4.878906 L 9.636719 11.613281 C 9.851562 11.769531 10.144531 11.769531 10.363281 11.613281 L 19.742188 4.878906 C 19.90625 4.761719 20 4.574219 20 4.375 C 20 3.671875 19.453125 3.125 18.75 3.125 Z M 18.75 3.125 "/>
</g>
</svg>
