<?xml version="1.0" encoding="UTF-8"?>
<svg xmlns="http://www.w3.org/2000/svg" xmlns:xlink="http://www.w3.org/1999/xlink" width="20pt" height="20pt" viewBox="0 0 20 20" version="1.1">
<g id="surface1">
<path style=" stroke:none;fill-rule:nonzero;fill:rgb(49.019608%,49.019608%,49.019608%);fill-opacity:1;" d="M 19.707031 20 L 0.292969 20 C 0.132812 20 0 19.867188 0 19.707031 L 0 19.152344 C 0 18.988281 0.132812 18.859375 0.292969 18.859375 L 19.707031 18.859375 C 19.867188 18.859375 20 18.988281 20 19.152344 L 20 19.707031 C 20 19.867188 19.867188 20 19.707031 20 Z M 19.707031 20 "/>
<path style=" stroke:none;fill-rule:nonzero;fill:rgb(32.156863%,32.156863%,32.156863%);fill-opacity:1;" d="M 0 19.160156 L 0 19.371094 L 20 19.371094 L 20 19.160156 C 20 18.992188 19.863281 18.859375 19.699219 18.859375 L 0.300781 18.859375 C 0.136719 18.859375 0 18.992188 0 19.160156 Z M 0 19.160156 "/>
<path style=" stroke:none;fill-rule:nonzero;fill:rgb(71.372549%,89.803922%,94.117647%);fill-opacity:1;" d="M 4.960938 5.078125 L 15.039062 5.078125 L 15.039062 18.859375 L 4.960938 18.859375 Z M 4.960938 5.078125 "/>
<path style=" stroke:none;fill-rule:nonzero;fill:rgb(49.019608%,49.019608%,49.019608%);fill-opacity:1;" d="M 15.5 3.992188 C 15.667969 3.992188 15.804688 4.125 15.804688 4.292969 L 15.804688 4.773438 C 15.804688 4.941406 15.667969 5.078125 15.5 5.078125 L 4.5 5.078125 C 4.332031 5.078125 4.195312 4.941406 4.195312 4.773438 L 4.195312 4.292969 C 4.195312 4.125 4.332031 3.992188 4.5 3.992188 Z M 15.5 3.992188 "/>
<path style=" stroke:none;fill-rule:nonzero;fill:rgb(32.156863%,32.156863%,32.156863%);fill-opacity:1;" d="M 13.929688 3.992188 L 13.929688 5.078125 L 15.5 5.078125 C 15.667969 5.078125 15.804688 4.941406 15.804688 4.773438 L 15.804688 4.292969 C 15.804688 4.125 15.667969 3.992188 15.5 3.992188 Z M 13.929688 3.992188 "/>
<path style=" stroke:none;fill-rule:nonzero;fill:rgb(49.019608%,49.019608%,49.019608%);fill-opacity:1;" d="M 4.960938 8.183594 L 0.292969 8.183594 C 0.132812 8.183594 0 8.050781 0 7.890625 L 0 7.386719 C 0 7.226562 0.132812 7.09375 0.292969 7.09375 L 4.960938 7.09375 Z M 4.960938 8.183594 "/>
<path style=" stroke:none;fill-rule:nonzero;fill:rgb(32.156863%,32.156863%,32.156863%);fill-opacity:1;" d="M 4.003906 7.09375 L 4.960938 7.09375 L 4.960938 8.183594 L 4.003906 8.183594 Z M 4.003906 7.09375 "/>
<path style=" stroke:none;fill-rule:nonzero;fill:rgb(32.156863%,32.156863%,32.156863%);fill-opacity:1;" d="M 4.003906 7.09375 L 4.960938 7.09375 L 4.960938 8.183594 L 4.003906 8.183594 Z M 4.003906 7.09375 "/>
<path style=" stroke:none;fill-rule:nonzero;fill:rgb(35.686275%,61.960784%,83.921569%);fill-opacity:1;" d="M 12.695312 18.859375 L 7.304688 18.859375 L 7.304688 14.617188 C 7.304688 14.15625 7.675781 13.78125 8.136719 13.78125 L 11.863281 13.78125 C 12.324219 13.78125 12.695312 14.15625 12.695312 14.617188 Z M 12.695312 18.859375 "/>
<path style=" stroke:none;fill-rule:nonzero;fill:rgb(30.196078%,52.54902%,70.980392%);fill-opacity:1;" d="M 9.308594 13.78125 L 10.691406 13.78125 L 10.691406 18.859375 L 9.308594 18.859375 Z M 9.308594 13.78125 "/>
<path style=" stroke:none;fill-rule:nonzero;fill:rgb(71.372549%,89.803922%,94.117647%);fill-opacity:1;" d="M 0.4375 8.183594 L 4.960938 8.183594 L 4.960938 18.859375 L 0.4375 18.859375 Z M 0.4375 8.183594 "/>
<path style=" stroke:none;fill-rule:nonzero;fill:rgb(60.784314%,76.470588%,80%);fill-opacity:1;" d="M 4.003906 8.183594 L 4.960938 8.183594 L 4.960938 18.859375 L 4.003906 18.859375 Z M 4.003906 8.183594 "/>
<path style=" stroke:none;fill-rule:nonzero;fill:rgb(60.784314%,76.470588%,80%);fill-opacity:1;" d="M 4.003906 8.183594 L 4.960938 8.183594 L 4.960938 18.859375 L 4.003906 18.859375 Z M 4.003906 8.183594 "/>
<path style=" stroke:none;fill-rule:nonzero;fill:rgb(71.372549%,89.803922%,94.117647%);fill-opacity:1;" d="M 19.5625 18.859375 L 15.039062 18.859375 L 15.039062 8.183594 L 19.5625 8.183594 Z M 19.5625 18.859375 "/>
<path style=" stroke:none;fill-rule:nonzero;fill:rgb(60.784314%,76.470588%,80%);fill-opacity:1;" d="M 15.039062 8.183594 L 15.996094 8.183594 L 15.996094 18.859375 L 15.039062 18.859375 Z M 15.039062 8.183594 "/>
<path style=" stroke:none;fill-rule:nonzero;fill:rgb(35.686275%,61.960784%,83.921569%);fill-opacity:1;" d="M 7.390625 10.46875 L 6.382812 10.46875 C 6.210938 10.46875 6.070312 10.328125 6.070312 10.15625 L 6.070312 7.539062 C 6.070312 7.363281 6.210938 7.222656 6.382812 7.222656 L 7.390625 7.222656 C 7.566406 7.222656 7.707031 7.363281 7.707031 7.539062 L 7.707031 10.15625 C 7.707031 10.328125 7.566406 10.46875 7.390625 10.46875 Z M 7.390625 10.46875 "/>
<path style=" stroke:none;fill-rule:nonzero;fill:rgb(35.686275%,61.960784%,83.921569%);fill-opacity:1;" d="M 10.503906 10.46875 L 9.496094 10.46875 C 9.324219 10.46875 9.183594 10.328125 9.183594 10.15625 L 9.183594 7.539062 C 9.183594 7.363281 9.324219 7.222656 9.496094 7.222656 L 10.503906 7.222656 C 10.675781 7.222656 10.816406 7.363281 10.816406 7.539062 L 10.816406 10.15625 C 10.816406 10.328125 10.675781 10.46875 10.503906 10.46875 Z M 10.503906 10.46875 "/>
<path style=" stroke:none;fill-rule:nonzero;fill:rgb(35.686275%,61.960784%,83.921569%);fill-opacity:1;" d="M 13.617188 10.46875 L 12.609375 10.46875 C 12.433594 10.46875 12.292969 10.328125 12.292969 10.15625 L 12.292969 7.539062 C 12.292969 7.363281 12.433594 7.222656 12.609375 7.222656 L 13.617188 7.222656 C 13.789062 7.222656 13.929688 7.363281 13.929688 7.539062 L 13.929688 10.15625 C 13.929688 10.328125 13.789062 10.46875 13.617188 10.46875 Z M 13.617188 10.46875 "/>
<path style=" stroke:none;fill-rule:nonzero;fill:rgb(35.686275%,61.960784%,83.921569%);fill-opacity:1;" d="M 3.203125 15.144531 L 2.195312 15.144531 C 2.023438 15.144531 1.878906 15.003906 1.878906 14.828125 L 1.878906 12.210938 C 1.878906 12.039062 2.023438 11.898438 2.195312 11.898438 L 3.203125 11.898438 C 3.375 11.898438 3.515625 12.039062 3.515625 12.210938 L 3.515625 14.828125 C 3.515625 15.003906 3.375 15.144531 3.203125 15.144531 Z M 3.203125 15.144531 "/>
<path style=" stroke:none;fill-rule:nonzero;fill:rgb(35.686275%,61.960784%,83.921569%);fill-opacity:1;" d="M 16.796875 15.144531 L 17.804688 15.144531 C 17.976562 15.144531 18.121094 15.003906 18.121094 14.828125 L 18.121094 12.210938 C 18.121094 12.039062 17.976562 11.898438 17.804688 11.898438 L 16.796875 11.898438 C 16.625 11.898438 16.484375 12.039062 16.484375 12.210938 L 16.484375 14.828125 C 16.484375 15.003906 16.625 15.144531 16.796875 15.144531 Z M 16.796875 15.144531 "/>
<path style=" stroke:none;fill-rule:nonzero;fill:rgb(49.019608%,49.019608%,49.019608%);fill-opacity:1;" d="M 19.699219 7.09375 C 19.863281 7.09375 20 7.230469 20 7.398438 L 20 7.878906 C 20 8.046875 19.863281 8.183594 19.699219 8.183594 L 15.039062 8.183594 L 15.039062 7.09375 Z M 19.699219 7.09375 "/>
<path style=" stroke:none;fill-rule:nonzero;fill:rgb(32.156863%,32.156863%,32.156863%);fill-opacity:1;" d="M 15.039062 7.09375 L 15.996094 7.09375 L 15.996094 8.183594 L 15.039062 8.183594 Z M 15.039062 7.09375 "/>
<path style=" stroke:none;fill-rule:nonzero;fill:rgb(93.72549%,17.647059%,34.117647%);fill-opacity:1;" d="M 12.808594 3.992188 L 12.808594 0.648438 C 12.808594 0.289062 12.519531 0 12.160156 0 L 7.839844 0 C 7.480469 0 7.191406 0.289062 7.191406 0.648438 L 7.191406 3.992188 Z M 12.808594 3.992188 "/>
<path style=" stroke:none;fill-rule:nonzero;fill:rgb(83.137255%,15.686275%,30.196078%);fill-opacity:1;" d="M 11.816406 0 L 11.816406 3.992188 L 12.808594 3.992188 L 12.808594 0.648438 C 12.808594 0.289062 12.519531 0 12.160156 0 Z M 11.816406 0 "/>
<path style=" stroke:none;fill-rule:nonzero;fill:rgb(100%,100%,100%);fill-opacity:1;" d="M 10.925781 1.695312 L 10.300781 1.695312 L 10.300781 1.070312 C 10.300781 0.902344 10.167969 0.769531 10 0.769531 C 9.832031 0.769531 9.699219 0.902344 9.699219 1.070312 L 9.699219 1.695312 L 9.074219 1.695312 C 8.90625 1.695312 8.773438 1.828125 8.773438 1.996094 C 8.773438 2.160156 8.90625 2.296875 9.074219 2.296875 L 9.699219 2.296875 L 9.699219 2.921875 C 9.699219 3.085938 9.832031 3.222656 10 3.222656 C 10.167969 3.222656 10.300781 3.085938 10.300781 2.921875 L 10.300781 2.296875 L 10.925781 2.296875 C 11.09375 2.296875 11.226562 2.160156 11.226562 1.996094 C 11.226562 1.828125 11.09375 1.695312 10.925781 1.695312 Z M 10.925781 1.695312 "/>
</g>
</svg>
