<?xml version="1.0" encoding="UTF-8"?>
<svg xmlns="http://www.w3.org/2000/svg" xmlns:xlink="http://www.w3.org/1999/xlink" width="20pt" height="20pt" viewBox="0 0 20 20" version="1.1">
<g id="surface1">
<path style=" stroke:none;fill-rule:nonzero;fill:rgb(10.588235%,18.039216%,35.686275%);fill-opacity:1;" d="M 13.542969 1.5625 L 13.542969 5.609375 L 17.058594 9.128906 L 17.058594 1.5625 Z M 13.542969 1.5625 "/>
<path style=" stroke:none;fill-rule:nonzero;fill:rgb(100%,32.156863%,32.156863%);fill-opacity:1;" d="M 17.519531 8.371094 L 17.519531 19.414062 L 2.46875 19.414062 L 2.46875 8.371094 L 10.007812 0.878906 Z M 17.519531 8.371094 "/>
<path style=" stroke:none;fill-rule:nonzero;fill:rgb(80.784314%,21.960784%,34.509804%);fill-opacity:1;" d="M 17.519531 8.371094 L 17.519531 19.414062 L 10.007812 19.414062 L 10.007812 0.878906 Z M 17.519531 8.371094 "/>
<path style=" stroke:none;fill-rule:nonzero;fill:rgb(88.627451%,93.72549%,96.862745%);fill-opacity:1;" d="M 20 10.011719 L 19.171875 10.84375 L 10.007812 1.660156 L 0.84375 10.84375 L 0.015625 10.011719 L 10.007812 0 Z M 20 10.011719 "/>
<path style=" stroke:none;fill-rule:nonzero;fill:rgb(100%,83.137255%,29.019608%);fill-opacity:1;" d="M 8.800781 12.992188 L 8.800781 16.707031 L 5.289062 16.707031 L 5.289062 12.992188 L 7.046875 11.523438 Z M 8.800781 12.992188 "/>
<path style=" stroke:none;fill-rule:nonzero;fill:rgb(88.627451%,93.72549%,96.862745%);fill-opacity:1;" d="M 5.289062 10.058594 L 8.800781 10.058594 L 8.800781 12.992188 L 5.289062 12.992188 Z M 5.289062 10.058594 "/>
<path style=" stroke:none;fill-rule:nonzero;fill:rgb(100%,71.372549%,25.098039%);fill-opacity:1;" d="M 14.695312 12.992188 L 14.695312 16.707031 L 11.183594 16.707031 L 11.183594 12.992188 L 12.941406 11.523438 Z M 14.695312 12.992188 "/>
<path style=" stroke:none;fill-rule:nonzero;fill:rgb(76.470588%,85.098039%,91.764706%);fill-opacity:1;" d="M 11.183594 10.058594 L 14.695312 10.058594 L 14.695312 12.992188 L 11.183594 12.992188 Z M 11.183594 10.058594 "/>
<path style=" stroke:none;fill-rule:nonzero;fill:rgb(100%,83.137255%,29.019608%);fill-opacity:1;" d="M 11.566406 6.601562 C 11.566406 5.738281 10.871094 5.039062 10.007812 5.039062 C 9.144531 5.039062 8.445312 5.738281 8.445312 6.601562 C 8.445312 7.46875 9.144531 8.167969 10.007812 8.167969 C 10.871094 8.167969 11.566406 7.46875 11.566406 6.601562 Z M 11.566406 6.601562 "/>
<path style=" stroke:none;fill-rule:nonzero;fill:rgb(41.568627%,82.745098%,67.843137%);fill-opacity:1;" d="M 0 18.828125 L 20 18.828125 L 20 20 L 0 20 Z M 0 18.828125 "/>
<path style=" stroke:none;fill-rule:nonzero;fill:rgb(100%,71.372549%,25.098039%);fill-opacity:1;" d="M 10.007812 8.167969 L 10.007812 5.039062 C 10.867188 5.039062 11.566406 5.742188 11.566406 6.601562 C 11.566406 7.464844 10.867188 8.167969 10.007812 8.167969 Z M 10.007812 8.167969 "/>
<path style=" stroke:none;fill-rule:nonzero;fill:rgb(28.627451%,69.803922%,63.921569%);fill-opacity:1;" d="M 10.007812 18.828125 L 20 18.828125 L 20 20 L 10.007812 20 Z M 10.007812 18.828125 "/>
<path style=" stroke:none;fill-rule:nonzero;fill:rgb(76.470588%,85.098039%,91.764706%);fill-opacity:1;" d="M 19.171875 10.84375 L 10.007812 1.660156 L 10.007812 0 L 20 10.011719 Z M 19.171875 10.84375 "/>
</g>
</svg>
