<?xml version="1.0" encoding="UTF-8"?>
<svg xmlns="http://www.w3.org/2000/svg" xmlns:xlink="http://www.w3.org/1999/xlink" width="20pt" height="20pt" viewBox="0 0 20 20" version="1.1">
<g id="surface1">
<path style=" stroke:none;fill-rule:nonzero;fill:rgb(100%,54.509804%,25.490196%);fill-opacity:1;" d="M 13.203125 7.992188 L 13.546875 7.117188 L 15.613281 6.886719 L 16.832031 5.304688 L 18.300781 5.511719 L 19.265625 6.589844 L 19.265625 7.027344 L 17.519531 8.21875 L 16.394531 10.839844 L 15.84375 10.839844 L 15.382812 9.644531 L 15.246094 8.726562 Z M 13.203125 7.992188 "/>
<path style=" stroke:none;fill-rule:nonzero;fill:rgb(100%,70.980392%,29.803922%);fill-opacity:1;" d="M 4.914062 0 L 3.285156 0 L 3.285156 1.078125 L 4.0625 2.226562 L 4.0625 3.078125 L 4.71875 3.730469 L 2.960938 6.867188 L 1.746094 6.867188 L 1.160156 7.453125 L 2.386719 9.207031 L 2.386719 9.691406 L 0.734375 9.691406 L 0.734375 10.148438 L 2.019531 12.6875 L 3.109375 12.207031 L 3.558594 12.207031 L 3.558594 13.835938 L 4.9375 17.40625 L 5.96875 20 L 6.246094 20 L 7.027344 10.585938 L 6.246094 1.078125 Z M 4.914062 0 "/>
<path style=" stroke:none;fill-rule:nonzero;fill:rgb(100%,54.509804%,25.490196%);fill-opacity:1;" d="M 10.011719 7.257812 L 7.945312 6.132812 L 8.382812 5.238281 L 8.382812 4.570312 L 7.164062 4.363281 L 7.164062 3.25 L 8.460938 1.445312 L 7.550781 0.355469 L 6.246094 1.078125 L 6.246094 20 L 7.003906 20 L 8.265625 17.679688 L 8.105469 15.179688 L 11.816406 12.253906 L 13.203125 11.441406 L 13.203125 7.992188 Z M 10.011719 7.257812 "/>
</g>
</svg>
