<?xml version="1.0" encoding="UTF-8"?>
<svg xmlns="http://www.w3.org/2000/svg" xmlns:xlink="http://www.w3.org/1999/xlink" width="20pt" height="20pt" viewBox="0 0 20 20" version="1.1">
<g id="surface1">
<path style="fill-rule:nonzero;fill:rgb(78.039216%,79.215686%,78.039216%);fill-opacity:1;stroke-width:2;stroke-linecap:butt;stroke-linejoin:miter;stroke:rgb(78.039216%,79.215686%,78.039216%);stroke-opacity:1;stroke-miterlimit:10;" d="M 42.004687 32.001953 L 14.998437 32.001953 L 14.998437 13.605078 C 14.998437 6.649609 21.058984 0.996875 28.501562 0.996875 C 35.944141 0.996875 42.004687 6.649609 42.004687 13.605078 Z M 18.997266 28.003125 L 37.994531 28.003125 L 37.994531 13.605078 C 37.994531 8.858594 33.735156 4.995703 28.501562 4.995703 C 23.256641 4.995703 18.997266 8.858594 18.997266 13.605078 Z M 18.997266 28.003125 " transform="matrix(0.344828,0,0,0.344828,0,0)"/>
<path style=" stroke:none;fill-rule:nonzero;fill:rgb(45.098039%,51.372549%,74.901961%);fill-opacity:1;" d="M 2.757812 8.964844 L 17.242188 8.964844 L 17.242188 20 L 2.757812 20 Z M 2.757812 8.964844 "/>
<path style=" stroke:none;fill-rule:nonzero;fill:rgb(40.784314%,47.45098%,68.627451%);fill-opacity:1;" d="M 10 8.964844 L 17.242188 8.964844 L 17.242188 20 L 10 20 Z M 10 8.964844 "/>
<path style=" stroke:none;fill-rule:nonzero;fill:rgb(92.156863%,72.941176%,8.627451%);fill-opacity:1;" d="M 14.683594 19.65625 L 16.898438 17.445312 L 16.898438 16.207031 L 14.96875 16.207031 L 11.523438 19.65625 Z M 14.683594 19.65625 "/>
<path style=" stroke:none;fill-rule:nonzero;fill:rgb(30.980392%,34.901961%,43.921569%);fill-opacity:1;" d="M 3.101562 16.207031 L 3.101562 18.824219 L 5.71875 16.207031 Z M 3.101562 16.207031 "/>
<path style=" stroke:none;fill-rule:nonzero;fill:rgb(25.882353%,29.019608%,37.647059%);fill-opacity:1;" d="M 10.546875 19.65625 L 13.996094 16.207031 L 10.832031 16.207031 L 7.382812 19.65625 Z M 10.546875 19.65625 "/>
<path style=" stroke:none;fill-rule:nonzero;fill:rgb(91.764706%,80%,9.411765%);fill-opacity:1;" d="M 9.855469 16.207031 L 6.695312 16.207031 L 3.347656 19.554688 C 3.28125 19.621094 3.191406 19.65625 3.101562 19.65625 L 6.410156 19.65625 Z M 9.855469 16.207031 "/>
<path style=" stroke:none;fill-rule:nonzero;fill:rgb(25.882353%,29.019608%,37.647059%);fill-opacity:1;" d="M 16.898438 19.65625 L 16.898438 18.417969 L 15.660156 19.65625 Z M 16.898438 19.65625 "/>
<path style=" stroke:none;fill-rule:nonzero;fill:rgb(30.980392%,34.901961%,43.921569%);fill-opacity:1;" d="M 10 17.039062 L 7.382812 19.65625 L 10 19.65625 Z M 10 17.039062 "/>
</g>
</svg>
