<?xml version="1.0" encoding="UTF-8"?>
<svg xmlns="http://www.w3.org/2000/svg" xmlns:xlink="http://www.w3.org/1999/xlink" width="20pt" height="20pt" viewBox="0 0 20 20" version="1.1">
<defs>
<filter id="alpha" filterUnits="objectBoundingBox" x="0%" y="0%" width="100%" height="100%">
  <feColorMatrix type="matrix" in="SourceGraphic" values="0 0 0 0 1 0 0 0 0 1 0 0 0 0 1 0 0 0 1 0"/>
</filter>
<mask id="mask0">
  <g filter="url(#alpha)">
<rect x="0" y="0" width="20" height="20" style="fill:rgb(0%,0%,0%);fill-opacity:0.4;stroke:none;"/>
  </g>
</mask>
<clipPath id="clip1">
  <rect width="20" height="20"/>
</clipPath>
<g id="surface6" clip-path="url(#clip1)">
<path style=" stroke:none;fill-rule:nonzero;fill:rgb(93.333333%,93.72549%,93.333333%);fill-opacity:1;" d="M 8.515625 11.878906 L 8.351562 11.878906 L 10.234375 7.503906 L 10.398438 7.503906 Z M 8.515625 11.878906 "/>
</g>
<mask id="mask1">
  <g filter="url(#alpha)">
<rect x="0" y="0" width="20" height="20" style="fill:rgb(0%,0%,0%);fill-opacity:0.4;stroke:none;"/>
  </g>
</mask>
<clipPath id="clip2">
  <rect width="20" height="20"/>
</clipPath>
<g id="surface9" clip-path="url(#clip2)">
<path style=" stroke:none;fill-rule:nonzero;fill:rgb(93.333333%,93.72549%,93.333333%);fill-opacity:1;" d="M 9.652344 11.878906 L 9.066406 11.878906 L 10.949219 7.503906 L 11.535156 7.503906 Z M 9.652344 11.878906 "/>
</g>
</defs>
<g id="surface1">
<path style=" stroke:none;fill-rule:nonzero;fill:rgb(34.117647%,35.686275%,42.745098%);fill-opacity:1;" d="M 8.527344 3.636719 C 8.527344 3.371094 7.714844 3.371094 7.714844 3.636719 L 7.597656 6.675781 L 8.644531 6.675781 Z M 8.527344 3.636719 "/>
<path style=" stroke:none;fill-rule:nonzero;fill:rgb(38.431373%,40%,48.627451%);fill-opacity:1;" d="M 8.738281 5.878906 L 11.261719 5.878906 C 12.207031 5.878906 12.976562 6.644531 12.976562 7.59375 L 12.976562 14.847656 C 12.976562 15.796875 12.207031 16.5625 11.261719 16.5625 L 8.738281 16.5625 C 7.792969 16.5625 7.023438 15.796875 7.023438 14.847656 L 7.023438 7.59375 C 7.023438 6.644531 7.792969 5.878906 8.738281 5.878906 Z M 8.738281 5.878906 "/>
<path style=" stroke:none;fill-rule:nonzero;fill:rgb(50.980392%,54.117647%,61.960784%);fill-opacity:1;" d="M 9.226562 6.617188 L 10.773438 6.617188 C 10.863281 6.617188 10.933594 6.691406 10.933594 6.78125 C 10.933594 6.867188 10.863281 6.941406 10.773438 6.941406 L 9.226562 6.941406 C 9.136719 6.941406 9.066406 6.867188 9.066406 6.78125 C 9.066406 6.691406 9.136719 6.617188 9.226562 6.617188 Z M 9.226562 6.617188 "/>
<path style=" stroke:none;fill-rule:nonzero;fill:rgb(41.176471%,69.019608%,93.333333%);fill-opacity:1;" d="M 8.179688 7.503906 L 11.804688 7.503906 C 12.011719 7.503906 12.179688 7.671875 12.179688 7.878906 L 12.179688 11.503906 C 12.179688 11.710938 12.011719 11.878906 11.804688 11.878906 L 8.179688 11.878906 C 7.972656 11.878906 7.804688 11.710938 7.804688 11.503906 L 7.804688 7.878906 C 7.804688 7.671875 7.972656 7.503906 8.179688 7.503906 Z M 8.179688 7.503906 "/>
<path style=" stroke:none;fill-rule:nonzero;fill:rgb(60.392157%,61.960784%,68.627451%);fill-opacity:1;" d="M 8.019531 12.796875 L 8.832031 12.796875 C 8.96875 12.796875 9.078125 12.90625 9.078125 13.042969 C 9.078125 13.183594 8.96875 13.292969 8.832031 13.292969 L 8.019531 13.292969 C 7.878906 13.292969 7.769531 13.183594 7.769531 13.042969 C 7.769531 12.90625 7.878906 12.796875 8.019531 12.796875 Z M 8.019531 12.796875 "/>
<path style=" stroke:none;fill-rule:nonzero;fill:rgb(60.392157%,61.960784%,68.627451%);fill-opacity:1;" d="M 9.59375 12.796875 L 10.40625 12.796875 C 10.542969 12.796875 10.65625 12.90625 10.65625 13.042969 C 10.65625 13.183594 10.542969 13.292969 10.40625 13.292969 L 9.59375 13.292969 C 9.457031 13.292969 9.34375 13.183594 9.34375 13.042969 C 9.34375 12.90625 9.457031 12.796875 9.59375 12.796875 Z M 9.59375 12.796875 "/>
<path style=" stroke:none;fill-rule:nonzero;fill:rgb(60.392157%,61.960784%,68.627451%);fill-opacity:1;" d="M 11.167969 12.796875 L 11.980469 12.796875 C 12.121094 12.796875 12.230469 12.90625 12.230469 13.042969 C 12.230469 13.183594 12.121094 13.292969 11.980469 13.292969 L 11.167969 13.292969 C 11.03125 13.292969 10.921875 13.183594 10.921875 13.042969 C 10.921875 12.90625 11.03125 12.796875 11.167969 12.796875 Z M 11.167969 12.796875 "/>
<path style=" stroke:none;fill-rule:nonzero;fill:rgb(60.392157%,61.960784%,68.627451%);fill-opacity:1;" d="M 8.019531 13.730469 L 8.832031 13.730469 C 8.96875 13.730469 9.078125 13.839844 9.078125 13.976562 C 9.078125 14.113281 8.96875 14.226562 8.832031 14.226562 L 8.019531 14.226562 C 7.878906 14.226562 7.769531 14.113281 7.769531 13.976562 C 7.769531 13.839844 7.878906 13.730469 8.019531 13.730469 Z M 8.019531 13.730469 "/>
<path style=" stroke:none;fill-rule:nonzero;fill:rgb(60.392157%,61.960784%,68.627451%);fill-opacity:1;" d="M 9.59375 13.730469 L 10.40625 13.730469 C 10.542969 13.730469 10.65625 13.839844 10.65625 13.976562 C 10.65625 14.113281 10.542969 14.226562 10.40625 14.226562 L 9.59375 14.226562 C 9.457031 14.226562 9.34375 14.113281 9.34375 13.976562 C 9.34375 13.839844 9.457031 13.730469 9.59375 13.730469 Z M 9.59375 13.730469 "/>
<path style=" stroke:none;fill-rule:nonzero;fill:rgb(60.392157%,61.960784%,68.627451%);fill-opacity:1;" d="M 11.167969 13.730469 L 11.980469 13.730469 C 12.121094 13.730469 12.230469 13.839844 12.230469 13.976562 C 12.230469 14.113281 12.121094 14.226562 11.980469 14.226562 L 11.167969 14.226562 C 11.03125 14.226562 10.921875 14.113281 10.921875 13.976562 C 10.921875 13.839844 11.03125 13.730469 11.167969 13.730469 Z M 11.167969 13.730469 "/>
<path style=" stroke:none;fill-rule:nonzero;fill:rgb(60.392157%,61.960784%,68.627451%);fill-opacity:1;" d="M 8.019531 14.664062 L 8.832031 14.664062 C 8.96875 14.664062 9.078125 14.773438 9.078125 14.910156 C 9.078125 15.046875 8.96875 15.160156 8.832031 15.160156 L 8.019531 15.160156 C 7.878906 15.160156 7.769531 15.046875 7.769531 14.910156 C 7.769531 14.773438 7.878906 14.664062 8.019531 14.664062 Z M 8.019531 14.664062 "/>
<path style=" stroke:none;fill-rule:nonzero;fill:rgb(60.392157%,61.960784%,68.627451%);fill-opacity:1;" d="M 9.59375 14.664062 L 10.40625 14.664062 C 10.542969 14.664062 10.65625 14.773438 10.65625 14.910156 C 10.65625 15.046875 10.542969 15.160156 10.40625 15.160156 L 9.59375 15.160156 C 9.457031 15.160156 9.34375 15.046875 9.34375 14.910156 C 9.34375 14.773438 9.457031 14.664062 9.59375 14.664062 Z M 9.59375 14.664062 "/>
<path style=" stroke:none;fill-rule:nonzero;fill:rgb(60.392157%,61.960784%,68.627451%);fill-opacity:1;" d="M 11.167969 14.664062 L 11.980469 14.664062 C 12.121094 14.664062 12.230469 14.773438 12.230469 14.910156 C 12.230469 15.046875 12.121094 15.160156 11.980469 15.160156 L 11.167969 15.160156 C 11.03125 15.160156 10.921875 15.046875 10.921875 14.910156 C 10.921875 14.773438 11.03125 14.664062 11.167969 14.664062 Z M 11.167969 14.664062 "/>
<use xlink:href="#surface6" mask="url(#mask0)"/>
<use xlink:href="#surface9" mask="url(#mask1)"/>
</g>
</svg>
